<?xml version="1.0" encoding="UTF-8" standalone="no"?>
<!-- Created with Inkscape (http://www.inkscape.org/) -->

<svg
   xmlns:dc="http://purl.org/dc/elements/1.1/"
   xmlns:cc="http://creativecommons.org/ns#"
   xmlns:rdf="http://www.w3.org/1999/02/22-rdf-syntax-ns#"
   xmlns:svg="http://www.w3.org/2000/svg"
   xmlns="http://www.w3.org/2000/svg"
   xmlns:sodipodi="http://sodipodi.sourceforge.net/DTD/sodipodi-0.dtd"
   xmlns:inkscape="http://www.inkscape.org/namespaces/inkscape"
   width="717"
   height="717"
   id="svg2"
   version="1.1"
   inkscape:version="0.48.5 r10040"
   sodipodi:docname="fm_apple_podcast_v0.svg"
   inkscape:export-filename="/opt/data/Sites/101.camp/elpy4u/design/fm.101.camp/fm_apple_podcast_v0-h2042.png"
   inkscape:export-xdpi="256.31799"
   inkscape:export-ydpi="256.31799">
  <defs
     id="defs4" />
  <sodipodi:namedview
     id="base"
     pagecolor="#ffffff"
     bordercolor="#666666"
     borderopacity="1.0"
     inkscape:pageopacity="0.0"
     inkscape:pageshadow="2"
     inkscape:zoom="0.75034868"
     inkscape:cx="307.19052"
     inkscape:cy="358.5"
     inkscape:document-units="px"
     inkscape:current-layer="layer1"
     showgrid="false"
     inkscape:window-width="1218"
     inkscape:window-height="744"
     inkscape:window-x="8"
     inkscape:window-y="282"
     inkscape:window-maximized="0" />
  <metadata
     id="metadata7">
    <rdf:RDF>
      <cc:Work
         rdf:about="">
        <dc:format>image/svg+xml</dc:format>
        <dc:type
           rdf:resource="http://purl.org/dc/dcmitype/StillImage" />
        <dc:title></dc:title>
      </cc:Work>
    </rdf:RDF>
  </metadata>
  <g
     inkscape:label="bg"
     inkscape:groupmode="layer"
     id="layer1"
     transform="translate(0,-335.36218)">
    <rect
       style="fill:#073642;fill-opacity:0.94117647;stroke:none"
       id="rect3268"
       width="717"
       height="717"
       x="0"
       y="335.36218"
       ry="0" />
    <g
       inkscape:label="bg"
       id="layer1-0"
       transform="translate(182.95276,-130.61837)"
       style="display:none">
      <rect
         style="fill:#ececec;fill-opacity:1;stroke:none"
         id="rect3781"
         width="420"
         height="420"
         x="162.04724"
         y="580.15741"
         ry="33.563236"
         inkscape:export-xdpi="42.944805"
         inkscape:export-ydpi="42.944805" />
    </g>
    <g
       id="layer3"
       inkscape:label="101"
       style="display:none"
       transform="translate(182.95276,397.33435)">
      <g
         transform="matrix(2.1880294,0,0,1.8883942,-198.70274,-337.09439)"
         style="font-size:226.32015991px;font-style:normal;font-variant:normal;font-weight:900;font-stretch:normal;text-align:start;line-height:125%;letter-spacing:0px;word-spacing:0px;writing-mode:lr-tb;text-anchor:start;fill:#ffffff;fill-opacity:1;stroke:none;font-family:Snell Roundhand;-inkscape-font-specification:Snell Roundhand Heavy"
         id="text3151">
        <path
           d="m 170.95938,251.32039 c 17.80383,-4.37544 35.00414,-10.18432 51.601,-17.42665 16.59673,-7.24214 32.13737,-16.52126 46.62195,-27.83738 l 1.81056,1.35792 c -6.0353,10.10908 -12.4477,20.59524 -19.23721,31.4585 -6.63881,10.71257 -13.12665,21.34961 -19.46354,31.91115 -6.33702,10.56165 -12.29678,20.74605 -17.87929,30.55322 -5.43173,9.80722 -10.03357,18.78458 -13.80553,26.9321 l -35.07962,2.2632 c 9.95807,-15.38976 19.46351,-31.08127 28.51634,-47.0746 9.05276,-16.1441 18.33188,-31.45842 27.83738,-45.94299 l -0.45264,-0.45264 c -7.84582,3.77209 -15.99334,7.24233 -24.44258,10.41073 -8.29843,3.01768 -16.74771,5.65808 -25.34786,7.9212 l -0.67896,-4.07376"
           id="path3022"
           inkscape:connector-curvature="0"
           style="fill:#ffffff" />
      </g>
      <g
         id="g3142"
         style="font-size:226.32015991px;font-style:normal;font-variant:normal;font-weight:900;font-stretch:normal;text-align:start;line-height:125%;letter-spacing:0px;word-spacing:0px;writing-mode:lr-tb;text-anchor:start;fill:#ffffff;fill-opacity:1;stroke:none;font-family:Snell Roundhand;-inkscape-font-specification:Snell Roundhand Heavy"
         transform="matrix(-2.1880294,0,0,1.8883942,942.70316,-337.09439)">
        <path
           style="fill:#ffffff"
           inkscape:connector-curvature="0"
           id="path3144"
           d="m 170.95938,251.32039 c 17.80383,-4.37544 35.00414,-10.18432 51.601,-17.42665 16.59673,-7.24214 32.13737,-16.52126 46.62195,-27.83738 l 1.81056,1.35792 c -6.0353,10.10908 -12.4477,20.59524 -19.23721,31.4585 -6.63881,10.71257 -13.12665,21.34961 -19.46354,31.91115 -6.33702,10.56165 -12.29678,20.74605 -17.87929,30.55322 -5.43173,9.80722 -10.03357,18.78458 -13.80553,26.9321 l -35.07962,2.2632 c 9.95807,-15.38976 19.46351,-31.08127 28.51634,-47.0746 9.05276,-16.1441 18.33188,-31.45842 27.83738,-45.94299 l -0.45264,-0.45264 c -7.84582,3.77209 -15.99334,7.24233 -24.44258,10.41073 -8.29843,3.01768 -16.74771,5.65808 -25.34786,7.9212 l -0.67896,-4.07376" />
      </g>
    </g>
    <g
       style="display:none"
       inkscape:label="YY10"
       id="g3111"
       transform="translate(182.95276,397.33435)">
      <g
         style="font-size:40px;font-style:normal;font-variant:normal;font-weight:normal;font-stretch:normal;text-align:start;line-height:125%;letter-spacing:0px;word-spacing:0px;writing-mode:lr-tb;text-anchor:start;fill:#ffffff;fill-opacity:1;stroke:none;font-family:Wingdings;-inkscape-font-specification:Wingdings"
         id="g3131"
         transform="matrix(-1.7386108,11.237781,11.237781,1.7386108,-1078.907,-997.52689)">
        <path
           sodipodi:nodetypes="cccsssssccccccccccccsccscccsccc"
           d="m 95.849998,131.5016 c 3.424461,3e-5 6.354142,1.21747 8.789062,3.65235 2.43487,2.43491 3.65232,5.3646 3.65234,8.78906 -2e-5,3.43751 -1.21747,6.3737 -3.65234,8.80859 -2.4219,2.42188 -5.35158,3.63281 -8.789062,3.63281 -3.42449,0 -6.354175,-1.21744 -8.789062,-3.65234 -2.4349,-2.43489 -3.652346,-5.36457 -3.652344,-8.78906 -2e-6,-3.42446 1.217444,-6.35415 3.652344,-8.78906 2.434887,-2.43488 5.364572,-3.65232 8.789062,-3.65235 M 84.61953,143.94301 c -4e-6,-1.77082 0.475256,-3.07941 1.425781,-3.92578 0.963535,-0.84634 2.246086,-1.26952 3.847656,-1.26953 1.276032,1e-5 2.441395,0.46876 3.496094,1.40625 1.054674,0.92449 1.874986,2.18751 2.460937,3.78906 0.585922,1.60157 1.406234,2.8711 2.460938,3.80859 1.054669,0.92449 2.220034,1.38673 3.496094,1.38672 1.67966,1e-5 2.97524,-0.4427 3.88672,-1.32812 0.92445,-0.88541 1.38669,-2.17447 1.38672,-3.86719 -3e-5,-3.08592 -1.10029,-5.72915 -3.30078,-7.92969 -2.20055,-2.2005 -4.843772,-3.30076 -7.929692,-3.30078 -3.085949,2e-5 -5.729175,1.10028 -7.929687,3.30078 -2.200526,2.20054 -3.300785,4.84377 -3.300781,7.92969 m 5.195312,1.83594 c 0.494782,1e-5 0.92447,-0.18228 1.289063,-0.54688 0.364572,-0.36457 0.546864,-0.79426 0.546875,-1.28906 -1.1e-5,-0.49478 -0.182303,-0.92447 -0.546875,-1.28906 -0.364593,-0.36457 -0.794281,-0.54686 -1.289063,-0.54688 -0.4948,2e-5 -0.924487,0.18231 -1.289062,0.54688 -0.364591,0.36459 -0.546882,0.79428 -0.546875,1.28906 -7e-6,0.4948 0.175774,0.92449 0.527343,1.28906 0.364576,0.3646 0.800773,0.54689 1.308594,0.54688"
           id="path3133"
           inkscape:connector-curvature="0"
           style="fill:#ffffff" />
        <path
           sodipodi:nodetypes="cccsssssccccccccccccsccscccsccc"
           inkscape:connector-curvature="0"
           id="path3135"
           d="m 95.849998,131.5016 c 3.424461,3e-5 6.354142,1.21747 8.789062,3.65235 2.43487,2.43491 3.65232,5.3646 3.65234,8.78906 -2e-5,3.43751 -1.21747,6.3737 -3.65234,8.80859 -2.4219,2.42188 -5.35158,3.63281 -8.789062,3.63281 -3.42449,0 -6.354175,-1.21744 -8.789062,-3.65234 -2.4349,-2.43489 -3.652346,-5.36457 -3.652344,-8.78906 -2e-6,-3.42446 1.217444,-6.35415 3.652344,-8.78906 2.434887,-2.43488 5.364572,-3.65232 8.789062,-3.65235 M 84.61953,143.94301 c -4e-6,-1.77082 0.475256,-3.07941 1.425781,-3.92578 0.963535,-0.84634 2.246086,-1.26952 3.847656,-1.26953 1.276032,1e-5 2.441395,0.46876 3.496094,1.40625 1.054674,0.92449 1.874986,2.18751 2.460937,3.78906 0.585922,1.60157 1.406234,2.8711 2.460938,3.80859 1.054669,0.92449 2.220034,1.38673 3.496094,1.38672 1.67966,1e-5 2.97524,-0.4427 3.88672,-1.32812 0.92445,-0.88541 1.38669,-2.17447 1.38672,-3.86719 -3e-5,-3.08592 -1.10029,-5.72915 -3.30078,-7.92969 -2.20055,-2.2005 -4.843772,-3.30076 -7.929692,-3.30078 -3.085949,2e-5 -5.729175,1.10028 -7.929687,3.30078 -2.200526,2.20054 -3.300785,4.84377 -3.300781,7.92969 m 5.195312,1.83594 c 0.494782,1e-5 0.92447,-0.18228 1.289063,-0.54688 0.364572,-0.36457 0.546864,-0.79426 0.546875,-1.28906 -1.1e-5,-0.49478 -0.182303,-0.92447 -0.546875,-1.28906 -0.364593,-0.36457 -0.794281,-0.54686 -1.289063,-0.54688 -0.4948,2e-5 -0.924487,0.18231 -1.289062,0.54688 -0.364591,0.36459 -0.546882,0.79428 -0.546875,1.28906 -7e-6,0.4948 0.175774,0.92449 0.527343,1.28906 0.364576,0.3646 0.800773,0.54689 1.308594,0.54688"
           style="fill:#ffffff" />
      </g>
    </g>
    <g
       id="g3137"
       inkscape:label="YY01"
       style="display:none"
       transform="translate(182.95276,397.33435)">
      <g
         style="font-size:40px;font-style:normal;font-variant:normal;font-weight:normal;font-stretch:normal;text-align:start;line-height:125%;letter-spacing:0px;word-spacing:0px;writing-mode:lr-tb;text-anchor:start;fill:#ffffff;fill-opacity:1;stroke:none;font-family:Wingdings;-inkscape-font-specification:Wingdings"
         id="g3139"
         transform="matrix(-2.1702259,9.281927,-9.281927,-2.1702259,1947.4863,-277.32089)">
        <path
           d="m 95.849998,131.5016 c 3.424461,3e-5 6.354142,1.21747 8.789062,3.65235 2.43487,2.43491 3.65232,5.3646 3.65234,8.78906 -2e-5,3.43751 -1.21747,6.3737 -3.65234,8.80859 -2.4219,2.42188 -5.35158,3.63281 -8.789062,3.63281 -3.42449,0 -6.354175,-1.21744 -8.789062,-3.65234 -2.4349,-2.43489 -3.652346,-5.36457 -3.652344,-8.78906 -2e-6,-3.42446 1.217444,-6.35415 3.652344,-8.78906 2.434887,-2.43488 5.364572,-3.65232 8.789062,-3.65235 M 84.61953,143.94301 c -4e-6,-1.77082 0.475256,-3.07941 1.425781,-3.92578 0.963535,-0.84634 2.246086,-1.26952 3.847656,-1.26953 1.276032,1e-5 2.441395,0.46876 3.496094,1.40625 1.054674,0.92449 1.874986,2.18751 2.460937,3.78906 0.585922,1.60157 1.406234,2.8711 2.460938,3.80859 1.054669,0.92449 2.220034,1.38673 3.496094,1.38672 1.67966,1e-5 2.97524,-0.4427 3.88672,-1.32812 0.92445,-0.88541 1.38669,-2.17447 1.38672,-3.86719 -3e-5,-3.08592 -1.10029,-5.72915 -3.30078,-7.92969 -2.20055,-2.2005 -4.843772,-3.30076 -7.929692,-3.30078 -3.085949,2e-5 -5.729175,1.10028 -7.929687,3.30078 -2.200526,2.20054 -3.300785,4.84377 -3.300781,7.92969 m 17.26562,-1.83594 c 0.49477,2e-5 0.92446,0.18231 1.28907,0.54688 0.36456,0.36459 0.54685,0.79428 0.54687,1.28906 -2e-5,0.4948 -0.18231,0.92449 -0.54687,1.28906 -0.35159,0.3646 -0.78127,0.54689 -1.28907,0.54688 -0.49481,1e-5 -0.92449,-0.18228 -1.28906,-0.54688 -0.3646,-0.36457 -0.54689,-0.79426 -0.54687,-1.28906 -2e-5,-0.49478 0.18227,-0.92447 0.54687,-1.28906 0.36457,-0.36457 0.79425,-0.54686 1.28906,-0.54688 m -12.070308,3.67188 c 0.494782,1e-5 0.92447,-0.18228 1.289063,-0.54688 0.364572,-0.36457 0.546864,-0.79426 0.546875,-1.28906 -1.1e-5,-0.49478 -0.182303,-0.92447 -0.546875,-1.28906 -0.364593,-0.36457 -0.794281,-0.54686 -1.289063,-0.54688 -0.4948,2e-5 -0.924487,0.18231 -1.289062,0.54688 -0.364591,0.36459 -0.546882,0.79428 -0.546875,1.28906 -7e-6,0.4948 0.175774,0.92449 0.527343,1.28906 0.364576,0.3646 0.800773,0.54689 1.308594,0.54688"
           id="path3141"
           inkscape:connector-curvature="0"
           style="fill:#ffffff" />
        <path
           inkscape:connector-curvature="0"
           id="path3143"
           d="m 95.849998,131.5016 c 3.424461,3e-5 6.354142,1.21747 8.789062,3.65235 2.43487,2.43491 3.65232,5.3646 3.65234,8.78906 -2e-5,3.43751 -1.21747,6.3737 -3.65234,8.80859 -2.4219,2.42188 -5.35158,3.63281 -8.789062,3.63281 -3.42449,0 -6.354175,-1.21744 -8.789062,-3.65234 -2.4349,-2.43489 -3.652346,-5.36457 -3.652344,-8.78906 -2e-6,-3.42446 1.217444,-6.35415 3.652344,-8.78906 2.434887,-2.43488 5.364572,-3.65232 8.789062,-3.65235 M 84.61953,143.94301 c -4e-6,-1.77082 0.475256,-3.07941 1.425781,-3.92578 0.963535,-0.84634 2.246086,-1.26952 3.847656,-1.26953 1.276032,1e-5 2.441395,0.46876 3.496094,1.40625 1.054674,0.92449 1.874986,2.18751 2.460937,3.78906 0.585922,1.60157 1.406234,2.8711 2.460938,3.80859 1.054669,0.92449 2.220034,1.38673 3.496094,1.38672 1.67966,1e-5 2.97524,-0.4427 3.88672,-1.32812 0.92445,-0.88541 1.38669,-2.17447 1.38672,-3.86719 -3e-5,-3.08592 -1.10029,-5.72915 -3.30078,-7.92969 -2.20055,-2.2005 -4.843772,-3.30076 -7.929692,-3.30078 -3.085949,2e-5 -5.729175,1.10028 -7.929687,3.30078 -2.200526,2.20054 -3.300785,4.84377 -3.300781,7.92969 m 17.26562,-1.83594 c 0.49477,2e-5 0.92446,0.18231 1.28907,0.54688 0.36456,0.36459 0.54685,0.79428 0.54687,1.28906 -2e-5,0.4948 -0.18231,0.92449 -0.54687,1.28906 -0.35159,0.3646 -0.78127,0.54689 -1.28907,0.54688 -0.49481,1e-5 -0.92449,-0.18228 -1.28906,-0.54688 -0.3646,-0.36457 -0.54689,-0.79426 -0.54687,-1.28906 -2e-5,-0.49478 0.18227,-0.92447 0.54687,-1.28906 0.36457,-0.36457 0.79425,-0.54686 1.28906,-0.54688"
           sodipodi:nodetypes="cccsssssccccccccccccsccccccccsc"
           style="fill:#ffffff" />
      </g>
    </g>
    <g
       inkscape:label="YY00"
       id="g3085"
       style="display:none"
       transform="translate(182.95276,397.33435)">
      <g
         transform="matrix(-3.0102967,9.044454,-9.044454,-3.0102967,1993.8368,-133.63682)"
         id="g3101"
         style="font-size:40px;font-style:normal;font-variant:normal;font-weight:normal;font-stretch:normal;text-align:start;line-height:125%;letter-spacing:0px;word-spacing:0px;writing-mode:lr-tb;text-anchor:start;fill:#ffffff;fill-opacity:1;stroke:none;font-family:Wingdings;-inkscape-font-specification:Wingdings">
        <path
           sodipodi:nodetypes="cccsssssccccccccccccsc"
           inkscape:connector-curvature="0"
           id="path3103"
           d="m 95.849998,131.5016 c 3.424461,3e-5 6.354142,1.21747 8.789062,3.65235 2.43487,2.43491 3.65232,5.3646 3.65234,8.78906 -2e-5,3.43751 -1.21747,6.3737 -3.65234,8.80859 -2.4219,2.42188 -5.35158,3.63281 -8.789062,3.63281 -3.42449,0 -6.354175,-1.21744 -8.789062,-3.65234 -2.4349,-2.43489 -3.652346,-5.36457 -3.652344,-8.78906 -2e-6,-3.42446 1.217444,-6.35415 3.652344,-8.78906 2.434887,-2.43488 5.364572,-3.65232 8.789062,-3.65235 M 84.61953,143.94301 c -4e-6,-1.77082 0.475256,-3.07941 1.425781,-3.92578 0.963535,-0.84634 2.246086,-1.26952 3.847656,-1.26953 1.276032,1e-5 2.441395,0.46876 3.496094,1.40625 1.054674,0.92449 1.874986,2.18751 2.460937,3.78906 0.585922,1.60157 1.406234,2.8711 2.460938,3.80859 1.054669,0.92449 2.220034,1.38673 3.496094,1.38672 1.67966,1e-5 2.97524,-0.4427 3.88672,-1.32812 0.92445,-0.88541 1.38669,-2.17447 1.38672,-3.86719 -3e-5,-3.08592 -1.10029,-5.72915 -3.30078,-7.92969 -2.20055,-2.2005 -4.843772,-3.30076 -7.929692,-3.30078 -3.085949,2e-5 -5.729175,1.10028 -7.929687,3.30078 -2.200526,2.20054 -3.300785,4.84377 -3.300781,7.92969"
           style="fill:#ffffff" />
      </g>
    </g>
    <g
       id="g4333"
       transform="matrix(1.0042759,0,0,1.0042017,-1.495678e-5,-2.9154044)">
      <rect
         style="fill:#002b36;fill-opacity:1;stroke:none"
         id="rect3779"
         width="204"
         height="714"
         x="-2.8125e-06"
         y="336.86218" />
      <rect
         y="336.86218"
         x="509.94727"
         height="714"
         width="204"
         id="rect3952"
         style="fill:#002b36;fill-opacity:1;stroke:none" />
      <path
         sodipodi:type="arc"
         style="fill:#002b36;fill-opacity:1;stroke:none"
         id="path3007"
         sodipodi:cx="235.56914"
         sodipodi:cy="165.00217"
         sodipodi:rx="68.145554"
         sodipodi:ry="68.145554"
         d="m 303.71469,165.00217 c 0,37.63575 -30.5098,68.14555 -68.14555,68.14555 -37.63575,0 -68.14556,-30.5098 -68.14556,-68.14555 0,-37.63575 30.50981,-68.145557 68.14556,-68.145557 37.63575,0 68.14555,30.509807 68.14555,68.145557 z"
         transform="matrix(2.4946602,0,0,5.2387865,-230.70649,-170.54894)" />
    </g>
    <path
       inkscape:connector-curvature="0"
       id="path4069"
       style="font-size:342.70510863999999174px;font-style:normal;font-variant:normal;font-weight:normal;font-stretch:normal;text-align:start;line-height:125%;letter-spacing:0px;word-spacing:0px;writing-mode:lr-tb;text-anchor:start;fill:#586e75;fill-opacity:1;stroke:none;font-family:'喜鹊古字典简体';-inkscape-font-specification:'喜鹊古字典简体'"
       d="m 329.10581,839.50518 c -0.31716,-0.1358 -0.56629,-0.40757 -0.74737,-0.81532 -0.13598,-0.40757 -0.20393,-0.88317 -0.20384,-1.42681 -9e-5,-0.40756 0.0679,-0.81523 0.20384,-1.22298 l 2.24212,-1.01915 c 0.76993,-0.40757 1.49466,-0.72463 2.17419,-0.9512 0.63404,-0.90582 1.13229,-2.06086 1.49476,-3.46512 0.40756,-1.40406 0.61139,-2.92146 0.61149,-4.5522 -10e-5,-1.08699 -0.11335,-2.26467 -0.33972,-3.53305 0.36226,0.0907 0.70198,0.0681 1.01915,-0.0679 0.31696,-0.13577 0.67933,-0.36225 1.08709,-0.67943 0.67933,-0.49814 1.22287,-0.74727 1.63064,-0.74737 0.31696,10e-5 0.67933,0.18129 1.0871,0.54354 0.40755,0.36247 0.70197,0.58896 0.88326,0.67944 0.40755,0.22659 0.90581,0.45306 1.49475,0.67942 0.9058,0.36248 1.60789,0.7022 2.10625,1.01916 0.54343,0.31717 0.97374,0.74748 1.29092,1.29092 -0.0454,0.40777 -0.0681,0.99661 -0.0679,1.76653 -1.1e-4,0.99661 -0.0907,2.0384 -0.27177,3.12539 -0.136,0.18129 -0.22659,0.27188 -0.27177,0.27177 -0.0454,1.1e-4 -0.15865,-0.0905 -0.33972,-0.27177 -0.136,-0.18108 -0.27189,-0.24902 -0.40766,-0.20383 -0.54366,0.99661 -0.97396,1.81193 -1.29092,2.44596 -0.27189,0.63424 -0.49836,1.35897 -0.67944,2.17419 0.76992,0.67953 1.63053,1.10983 2.58185,1.29092 0.99639,0.18128 2.35526,0.29452 4.0766,0.33972 1.90229,10e-5 3.28381,0.11334 4.14454,0.33972 l 1.5627,1.69858 c 1.26815,1.26837 2.19671,2.44605 2.78567,3.53306 0.63402,1.04189 0.88315,2.4234 0.74739,4.14454 -0.22661,0.77011 -0.8834,1.35895 -1.97036,1.76652 -1.04193,0.36245 -2.19696,0.54363 -3.46511,0.54355 -0.63426,8e-5 -1.10987,-0.0226 -1.42681,-0.0679 -0.58897,-0.0452 -1.33634,-0.29434 -2.24213,-0.74738 -0.99663,-0.45287 -1.85723,-0.70199 -2.58185,-0.74738 -1.0872,-0.86053 -2.37813,-1.56261 -3.87278,-2.10624 -1.44956,-0.54346 -2.74048,-0.74729 -3.87277,-0.61149 -0.13598,0.8607 -0.38511,1.56278 -0.74737,2.10624 -0.36247,0.54363 -0.90601,1.20042 -1.63064,1.97036 -0.54365,0.54363 -0.9966,1.06453 -1.35886,1.56269 -0.36247,0.49834 -0.65689,1.08718 -0.88327,1.76653 -0.31717,0.22656 -0.72483,0.3398 -1.22298,0.33972 -0.67953,8e-5 -1.20043,-0.11316 -1.5627,-0.33972 -0.49835,-0.99641 -0.74747,-2.28734 -0.74737,-3.87277 -10e-5,-1.72114 0.22638,-3.53296 0.67943,-5.43547 0.45286,-1.90232 0.70198,-2.98941 0.74738,-3.26128 -0.31717,-0.0905 -0.58894,-0.0905 -0.81532,0 -0.18129,0.0454 -0.43041,0.18128 -0.74738,0.40766 -0.31716,0.22657 -0.61159,0.33981 -0.88326,0.33972 m -43.68758,6.65845 c -0.36241,-0.58875 -0.79272,-1.06436 -1.29091,-1.42681 -0.0906,-0.0905 -0.29448,-0.27169 -0.6115,-0.54355 -0.31712,-0.31697 -0.56624,-0.72464 -0.74737,-1.22298 0.58879,-0.27168 1.17763,-0.43022 1.76652,-0.4756 0.63408,-0.0452 1.51735,-0.0679 2.6498,-0.0679 1.3588,9e-5 2.37796,-0.15844 3.05744,-0.47561 l 0.13589,0 c 0.18112,10e-5 0.33965,0.13598 0.4756,0.40767 0.13583,0.22657 0.27172,0.3398 0.40767,0.33971 0.99643,-0.58875 2.06088,-0.99641 3.19333,-1.22298 1.17762,-0.22638 2.60443,-0.38492 4.28043,-0.4756 1.94764,-0.13579 3.55564,-0.33963 4.82398,-0.61149 1.2682,-0.27168 2.42324,-0.81523 3.46511,-1.63064 -0.31714,-1.44936 -0.58892,-3.03471 -0.81532,-4.75603 -0.27185,-1.85702 -0.56627,-3.39707 -0.88326,-4.62015 -0.27185,-1.26817 -0.65686,-2.33262 -1.15504,-3.19334 -7e-5,-0.76992 0.18111,-1.58524 0.54355,-2.44596 0.36229,-0.8605 0.72465,-1.4267 1.08709,-1.69858 0.36229,-0.36226 0.76995,-0.54344 1.22298,-0.54355 0.2717,1.1e-4 0.76995,0.136 1.49476,0.40766 0.54347,0.27189 1.15496,0.47571 1.83447,0.6115 0.31698,0.0454 0.76994,0.0681 1.35886,0.0679 0.13581,1.1e-4 0.58877,1.1e-4 1.35887,0 0.81524,1.1e-4 1.56262,0.13601 2.24213,0.40767 0.45287,0.99661 0.67935,2.15164 0.67943,3.4651 -0.13597,0.18129 -0.24921,0.27189 -0.33971,0.27178 -0.13597,1.1e-4 -0.27186,-0.0678 -0.40767,-0.20383 -0.13596,-0.18108 -0.22656,-0.29431 -0.27177,-0.33971 -0.40774,1.04189 -0.61157,2.26488 -0.61149,3.66893 -8e-5,1.0872 0.1811,2.67254 0.54355,4.75604 0.0452,0.36246 0.11315,0.79277 0.20382,1.29092 0.0905,0.49835 0.15846,1.04189 0.20384,1.63064 0.67935,-0.58875 1.85703,-0.9964 3.53305,-1.22298 1.04171,-0.22638 1.74379,-0.38491 2.10624,-0.4756 0.54346,-0.18109 1.1776,-0.47551 1.90242,-0.88327 1.17759,-0.67933 2.03821,-1.01904 2.58185,-1.01915 0.95111,1.1e-4 1.58524,0.79277 1.90241,2.37802 l -0.27177,0 c -0.18128,10e-5 -0.36246,-0.0226 -0.54355,-0.0679 -0.13598,-0.0905 -0.27187,-0.15844 -0.40766,-0.20382 -0.27186,0.22657 -0.58893,0.54364 -0.95121,0.9512 -0.31716,0.36246 -0.54363,0.63423 -0.67943,0.81532 -0.67953,-0.0452 -1.33631,0.0907 -1.97036,0.40766 -0.58893,0.31716 -1.33631,0.79276 -2.24212,1.42681 -0.9513,0.63423 -1.74398,1.10984 -2.37803,1.42681 -0.58892,0.27186 -1.22306,0.40775 -1.90241,0.40766 -0.13597,0.31716 -0.20392,0.72482 -0.20382,1.22298 -1e-4,0.40775 0.0452,1.01924 0.13588,1.83447 0.0905,0.77011 0.11316,1.22307 0.0679,1.35887 l -0.47561,1.42681 c -0.63422,1.9025 -1.24571,3.44254 -1.83446,4.62015 -0.54363,1.17776 -1.26836,2.10632 -2.17419,2.78568 l -0.33972,0 c -1.22306,-0.45288 -2.03838,-1.47203 -2.44596,-3.05746 -0.36244,-1.58526 -0.63421,-3.82739 -0.81532,-6.72639 -2.26485,0.9513 -5.27701,2.4234 -9.03646,4.41632 l -2.85363,1.49476 c -0.5436,0.95128 -1.38158,1.81189 -2.5139,2.58184 -1.13245,0.7701 -2.21954,1.15512 -3.26128,1.15503 -1.22303,9e-5 -2.1063,-0.58875 -2.64979,-1.76652 -0.27182,-0.58877 -0.58889,-1.60791 -0.9512,-3.05745 -0.31713,-1.58526 -0.72479,-2.78559 -1.22299,-3.601 m 76.77598,60.67341 c 1.04167,0.40768 1.56257,1.2683 1.5627,2.58185 -1.3e-4,0.86063 -0.20397,1.81184 -0.61149,2.85361 -0.3625,0.99653 -0.79281,1.87979 -1.29093,2.64979 -0.49838,-0.0453 -1.29105,-0.15851 -2.37801,-0.33972 -1.44959,-0.27175 -2.53668,-0.40763 -3.26128,-0.40765 -1.67606,2e-5 -2.92169,0.52091 -3.73688,1.5627 -0.72485,-0.95119 -1.97048,-1.4268 -3.73689,-1.42682 -0.67955,2e-5 -1.65341,0.0906 -2.92156,0.27177 -0.36248,0.0453 -0.79279,0.0906 -1.29093,0.1359 -0.45306,0.0453 -0.97397,0.0679 -1.5627,0.0679 -0.63425,2e-5 -1.20044,-0.0679 -1.69858,-0.20383 -0.0454,0.27179 -0.0907,0.72475 -0.13589,1.35886 -10e-5,0.58887 -0.0907,1.10977 -0.27177,1.5627 l -0.0679,0 c -0.22659,2e-5 -0.40777,-0.15851 -0.54354,-0.4756 -0.0907,-0.36235 -0.1813,-0.58882 -0.27178,-0.67943 l 0.20383,3.60099 c 0.0452,0.49827 0.11314,1.58536 0.20383,3.26128 0.13578,1.67595 0.36226,3.19335 0.67943,4.55221 -0.22658,0.99651 -0.33982,1.78918 -0.33971,2.37802 -1.1e-4,0.77002 0.18108,1.87976 0.54355,3.32922 0.45284,1.90241 0.63402,3.64629 0.54354,5.23164 -0.13599,0.18117 -0.29453,0.27176 -0.4756,0.27177 -0.0907,-10e-6 -0.22659,-0.0453 -0.40766,-0.13589 -0.18129,-0.0453 -0.31718,-0.0906 -0.40766,-0.13588 -1.1e-4,1.63063 -0.29453,3.4198 -0.88327,5.36752 -0.0454,0.13587 -0.18128,0.65677 -0.40766,1.5627 -0.22658,0.95119 -0.36247,1.97034 -0.40765,3.05745 -0.136,0.13587 -0.27189,0.20381 -0.40766,0.20383 -0.1813,-2e-5 -0.40777,-0.11326 -0.67944,-0.33972 -0.22658,-0.22649 -0.43042,-0.36238 -0.61149,-0.40766 0.0905,0.31705 0.13579,0.74736 0.13589,1.29093 -10e-5,0.54353 -0.11335,1.06442 -0.33972,1.56269 -0.18128,0.49824 -0.29452,0.79266 -0.33972,0.88327 -0.13598,0.0453 -0.63424,0.18116 -1.49475,0.40765 -0.81542,0.27176 -1.54015,0.40765 -2.17418,0.40767 -1.81193,-2e-5 -3.01226,-1.13242 -3.601,-3.39717 -1e-4,-7.2473 -0.0907,-13.72456 -0.27178,-19.4318 -0.18128,-5.75252 -0.54364,-11.59564 -1.08709,-17.52938 l -0.13588,0 c -0.36247,2e-5 -0.67953,0.15855 -0.95122,0.47561 -0.27186,0.31708 -0.45304,0.52092 -0.54354,0.61148 -0.49834,-0.31705 -1.17778,-0.47558 -2.0383,-0.4756 -0.81541,2e-5 -1.78926,0.11326 -2.92156,0.33972 -0.27187,0.0453 -0.72482,0.11325 -1.35887,0.20382 -0.63422,0.0906 -1.17777,0.13592 -1.63064,0.13589 -0.63422,3e-5 -1.17777,-0.0679 -1.63064,-0.20383 -0.18127,-0.0453 -0.45304,-0.20381 -0.81532,-0.4756 -0.36245,-0.31705 -0.63422,-0.47559 -0.81533,-0.4756 -0.18125,1e-5 -0.38509,0.13591 -0.61148,0.40765 -8e-5,0.31709 0.0226,0.63417 0.0679,0.95121 0.0905,0.31709 0.13581,0.54357 0.13589,0.67944 0.1358,0.40767 0.20375,0.90592 0.20383,1.49475 -8e-5,0.36238 -0.0227,0.6568 -0.0679,0.88326 -0.49833,0.95122 -0.74746,2.24215 -0.74737,3.87277 -9e-5,0.86063 0.0679,1.76654 0.20383,2.71774 -0.31716,1.17769 -0.52099,2.89892 -0.61149,5.16369 l -0.13589,2.0383 c -0.49834,0.63414 -0.90599,1.31357 -1.22298,2.0383 -0.27185,0.72473 -0.43039,1.65329 -0.47561,2.78568 -0.22655,0.18118 -0.52098,0.33971 -0.88326,0.47561 -0.36245,0.13588 -0.67951,0.27176 -0.9512,0.40765 -0.31715,0.77003 -0.67952,1.44946 -1.0871,2.03831 -0.40773,0.58883 -0.92863,1.24562 -1.5627,1.97035 -0.95128,1.08709 -1.69866,2.08358 -2.24213,2.98951 -0.49832,0.9059 -0.86068,2.10623 -1.08709,3.601 -0.27184,0.0453 -0.58891,0.18117 -0.95121,0.40766 -0.31714,0.22646 -0.52097,0.36235 -0.61149,0.40765 -0.6795,0.58883 -1.26835,0.88325 -1.76652,0.88327 -0.45302,-2e-5 -0.83804,-0.27179 -1.15504,-0.81532 -0.18125,0.0906 -0.45302,0.31705 -0.81532,0.67943 -0.31713,0.36235 -0.65685,0.54353 -1.01915,0.54355 -0.13595,-2e-5 -0.33979,-0.0453 -0.61149,-0.13589 -1.58541,1.8571 -3.46517,3.01214 -5.6393,3.46511 -0.4983,0.8606 -1.1098,1.47208 -1.83447,1.83447 -0.67948,0.36235 -1.6307,0.67941 -2.85362,0.95121 -0.40771,0.0453 -0.90596,0.15851 -1.49475,0.33972 -0.31712,0.0906 -0.67949,0.27175 -1.08709,0.54354 -0.36242,0.27175 -0.61154,0.45294 -0.74739,0.54355 -0.95124,0.76999 -1.72127,1.15501 -2.31007,1.15504 -0.22652,-3e-5 -0.453,-0.068 -0.67943,-0.20383 0.0906,-0.90594 0.36232,-1.54008 0.81532,-1.90242 0.45291,-0.36238 1.1097,-0.67945 1.97036,-0.95121 0.76997,-0.27179 1.33617,-0.54357 1.69858,-0.81531 0.4076,-0.2265 0.72468,-0.63416 0.95121,-1.22298 0.54349,0.0453 1.04174,-0.0906 1.49475,-0.40767 0.4982,-0.31708 1.06439,-0.79268 1.69859,-1.42681 0.54348,-0.63415 1.01909,-1.06445 1.42681,-1.29092 0.0452,-0.0453 0.11318,-0.0679 0.20382,-0.0679 0.0905,-2e-5 0.20377,0.0226 0.33972,0.0679 0.18113,0.0453 0.31701,0.0453 0.40766,0 1.17763,-0.86063 2.21942,-1.99302 3.12539,-3.39716 0.95115,-1.40418 1.99295,-3.216 3.1254,-5.43547 0.90584,-1.76654 1.67587,-3.19335 2.31007,-4.28043 0.63407,-1.0871 1.33615,-2.06095 2.10625,-2.92157 0.13581,-1.76652 0.54347,-3.71423 1.22298,-5.84312 0.36229,-1.35887 0.63406,-2.49125 0.81531,-3.39718 0.22641,-0.9059 0.3623,-1.94769 0.40767,-3.12539 0.54347,-0.27175 0.88319,-0.74736 1.01915,-1.4268 0.18111,-0.72472 0.29435,-1.49474 0.33972,-2.31008 0.0452,-0.8606 0.0905,-1.51738 0.13588,-1.97036 0.13582,-0.13586 0.38494,-0.22646 0.74738,-0.27177 0.36229,-0.0906 0.61142,-0.18116 0.74737,-0.27177 -0.36244,-0.49823 -0.81539,-0.74736 -1.35886,-0.74738 -0.8154,2e-5 -1.49483,0.43033 -2.03831,1.29092 -0.6342,-0.86059 -1.58541,-1.2909 -2.85361,-1.29092 -1.26834,2e-5 -2.49132,0.33973 -3.66894,1.01915 -0.40773,-0.45294 -0.81539,-0.67942 -1.22299,-0.67943 -0.31713,10e-6 -0.72479,0.1359 -1.22297,0.40766 -0.45303,0.22649 -0.81539,0.40768 -1.0871,0.54354 l -0.20383,0 c -0.27183,2e-5 -0.49831,-0.18116 -0.67943,-0.54354 -0.18124,-0.40765 -0.38507,-0.61148 -0.61149,-0.61149 l -1.97036,0.81532 c -1.5854,0.67945 -2.5819,1.0871 -2.9895,1.22298 0.0452,0.63415 0.0679,1.54006 0.0679,2.71773 -5e-5,1.94773 -0.22652,3.64631 -0.67943,5.09575 -0.40772,1.40417 -1.22303,2.6498 -2.44596,3.73689 -0.22653,0.0453 -0.5436,0.0679 -0.95121,0.0679 -0.86067,0 -1.60804,-0.11323 -2.24213,-0.33972 -0.58889,-0.27176 -1.29096,-0.65677 -2.10624,-1.15503 0.0453,-0.18118 0.0679,-0.40765 0.0679,-0.67944 -5e-5,-0.8153 -0.29447,-1.81181 -0.88327,-2.9895 -0.4077,-0.72472 -0.61153,-1.29092 -0.61149,-1.69858 -4e-5,-0.31706 0.0905,-0.56618 0.27178,-0.74738 -0.36241,0.22648 -1.10979,0.56621 -2.24213,1.01915 -0.95125,0.36238 -1.69863,0.74738 -2.24213,1.15503 -0.49829,0.36238 -0.86066,0.99652 -1.08709,1.90242 -0.58889,-0.18118 -1.20038,-0.27176 -1.83448,-0.27177 -0.95124,1e-5 -1.74391,0.22648 -2.37801,0.67943 -0.63418,0.40767 -1.38155,1.04181 -2.24214,1.90241 -0.86064,0.86062 -1.63067,1.51741 -2.31007,1.97036 -0.63417,0.40767 -1.42684,0.61149 -2.37802,0.61149 -0.36239,0 -0.65681,-0.0226 -0.88326,-0.0679 -0.22651,0.18118 -0.43034,0.58885 -0.61149,1.22298 -0.18121,0.58884 -0.36239,0.97386 -0.54354,1.15504 -0.45299,-0.13588 -0.81535,-0.20383 -1.0871,-0.20383 -0.40768,0 -0.77005,0.15853 -1.08709,0.4756 -0.3171,0.27177 -0.63417,0.49826 -0.95121,0.67944 -0.2718,0.13588 -0.7021,0.15853 -1.29092,0.0679 -0.45298,1.17768 -1.20036,2.10624 -2.24213,2.78567 -0.99652,0.72473 -2.06097,1.08709 -3.19334,1.0871 -1.40418,-1e-5 -2.60451,-0.49825 -3.601,-1.49476 -0.99651,-0.9965 -1.58535,-2.46861 -1.76652,-4.41631 2.35535,-0.49826 4.00864,-1.63064 4.95986,-3.39717 0.18117,0.13589 0.47559,0.29442 0.88326,0.47561 0.45294,0.18118 0.83795,0.36236 1.15504,0.54354 0.45294,-0.63414 0.99648,-1.15503 1.63064,-1.5627 0.67941,-0.40766 1.56268,-0.86061 2.64979,-1.35887 0.67941,-0.31706 1.33619,-0.65677 1.97036,-1.01915 0.6794,-0.40765 1.2456,-0.81531 1.69858,-1.22298 -2e-5,-1.13238 0.0453,-3.14803 0.13589,-6.04695 0.0906,-3.26127 0.13585,-5.77516 0.13589,-7.54171 -4e-5,-5.48074 -0.38505,-9.71587 -1.15504,-12.70541 -0.2718,0.40769 -0.58887,0.67947 -0.95121,0.81532 -0.36239,0.13592 -0.86064,0.22651 -1.49476,0.27177 -0.99652,4e-5 -1.74389,0.20387 -2.24212,0.6115 0.36234,0.77005 0.54352,1.60802 0.54354,2.5139 -2e-5,0.67946 -0.11326,1.35889 -0.33971,2.03829 -0.1812,0.63417 -0.47562,1.42684 -0.88327,2.37802 -0.54356,1.26831 -0.90593,2.37805 -1.08709,3.32923 -0.45297,0.31709 -0.90593,0.56622 -1.35887,0.74738 -0.1359,0.0453 -0.47562,0.2265 -1.01915,0.54354 -0.54356,0.2718 -1.01916,0.63416 -1.4268,1.08709 -0.67945,0.0906 -1.20036,-0.0226 -1.5627,-0.33972 -0.31709,-0.31704 -0.58886,-0.67941 -0.81533,-1.08709 -0.22649,-0.45293 -0.40767,-0.77 -0.54354,-0.9512 0.27176,-2.35535 0.40765,-5.50338 0.40766,-9.44413 -10e-6,-2.31004 -0.0226,-4.34833 -0.0679,-6.1149 -0.0453,-1.76648 -0.0906,-3.23859 -0.13588,-4.41631 -0.1812,-4.71069 -0.27179,-8.2211 -0.27178,-10.53122 -1e-5,-3.39711 0.11323,-6.20543 0.33972,-8.42498 -0.27179,-0.49818 -0.67945,-1.01908 -1.22298,-1.56269 -0.54356,-0.63408 -0.95122,-1.15497 -1.22299,-1.5627 -0.22648,-0.45289 -0.38502,-1.01909 -0.4756,-1.69858 0.22647,-0.54349 0.49825,-1.01909 0.81532,-1.42681 0.36236,-0.45289 0.8606,-0.99644 1.49476,-1.63065 0.58882,-0.0452 1.13237,0.0227 1.63064,0.20383 0.54353,0.13596 1.20032,0.36244 1.97035,0.67944 0.54353,0.22654 1.10973,0.43038 1.69859,0.61149 0.63412,0.18125 1.20031,0.27184 1.69858,0.27177 0.77001,7e-5 1.74386,-0.24905 2.92156,-0.74737 0.90589,-0.3623 1.51738,-0.54348 1.83447,-0.54355 0.45294,7e-5 0.83795,0.18125 1.15505,0.54355 0.36233,0.36243 0.63411,0.54361 0.81531,0.54354 0.63411,7e-5 0.95118,-1.58527 0.95121,-4.75603 l 0,-3.94072 c -3e-5,-0.86053 0.0453,-2.19676 0.13588,-4.00866 0.0906,-1.81173 0.13587,-3.19324 0.1359,-4.14454 -3e-5,-1.44937 -0.0906,-2.71764 -0.27178,-3.80482 -3e-5,-0.45287 0.11322,-0.83789 0.33971,-1.15504 0.27175,-0.36227 0.45293,-0.6567 0.54355,-0.88327 -0.18121,-0.40756 -0.36239,-1.06435 -0.54355,-1.97035 -0.18121,-1.0417 -0.38503,-1.76644 -0.61149,-2.17419 -0.72475,0.18128 -1.223,0.27187 -1.49474,0.27177 -1.4042,10e-5 -2.08363,-0.9964 -2.03831,-2.98951 0.22646,-0.22637 0.79265,-0.74727 1.69858,-1.56269 0.95118,-0.86052 1.90239,-1.53994 2.85363,-2.0383 0.99647,-0.54345 1.94767,-0.81522 2.85361,-0.81532 0.45293,10e-5 1.01912,0.11334 1.69859,0.33972 0.45292,0.13598 0.95118,0.521 1.49475,1.15503 0.58881,0.58895 0.95117,1.22308 1.0871,1.90241 0.40762,0.13599 0.72469,0.20394 0.9512,0.20384 l 0.74738,-0.0679 c 0.22644,10e-5 0.54351,0.0681 0.95121,0.20383 -0.22652,1.08719 -0.33976,2.03839 -0.33972,2.85362 -4e-5,0.31717 0.0226,0.74747 0.0679,1.29092 0.0453,0.54365 0.0453,1.08719 0,1.63064 -0.95124,0.81542 -1.56273,1.78926 -1.83447,2.92156 -0.22651,1.13248 -0.38504,2.67253 -0.4756,4.62015 -4e-5,1.26836 -0.068,2.3781 -0.20383,3.32923 -0.0906,0.90599 -0.33975,1.72131 -0.74738,2.44596 0.31704,0.99658 0.47557,1.97043 0.4756,2.92156 -3e-5,0.40774 -0.0227,0.86069 -0.0679,1.35887 -0.0454,0.49832 -0.0906,0.88334 -0.13589,1.15504 -0.18122,1.17775 -0.27181,2.10631 -0.27177,2.78567 1.72119,0.45303 3.39713,0.79275 5.0278,1.01915 0.22644,-0.54347 0.52086,-1.01907 0.88327,-1.42681 0.36232,-0.40759 0.83793,-0.88319 1.42681,-1.42681 0.99646,-0.90583 1.67589,-1.65321 2.03829,-2.24213 0.22644,0.13597 0.76999,0.52098 1.63065,1.15504 0.76997,0.63422 1.47206,1.13246 2.10624,1.49476 0.67939,0.31713 1.47206,0.47567 2.37802,0.4756 0.54349,7e-5 0.95116,-0.0226 1.22298,-0.0679 0.86056,0.36244 1.51734,1.01922 1.97036,1.97036 0.49819,0.90597 0.74732,1.90248 0.74737,2.9895 -5e-5,1.17775 -0.29447,2.1969 -0.88326,3.05745 -0.5436,0.86068 -1.33627,1.38159 -2.37802,1.5627 -0.40771,3.39723 -0.61154,6.90763 -0.61149,10.53122 -5e-5,3.98605 0.29437,9.46681 0.88327,16.44228 -0.90596,0.27182 -2.19689,0.4077 -3.87277,0.40767 l -4.28044,-0.0679 c -1.22301,4e-5 -2.26481,0.068 -3.12539,0.20383 -0.86065,0.13593 -1.58538,0.4077 -2.17419,0.81532 -0.13592,0.0454 -0.29445,0.068 -0.4756,0.0679 -0.27181,4e-5 -0.47564,-0.0679 -0.61149,-0.20383 -0.13592,-0.13585 -0.27181,-0.29438 -0.40766,-0.4756 -0.0906,-0.18114 -0.18122,-0.31703 -0.27177,-0.40767 0.18115,1.31362 0.27173,2.89896 0.27177,4.75604 -4e-5,1.13242 -0.0454,2.83101 -0.13589,5.09575 -0.0906,2.3554 -0.13592,4.09928 -0.13588,5.23164 -4e-5,3.216 0.29438,5.8205 0.88326,7.81349 1.08705,-0.0453 2.21945,-0.385 3.39716,-1.01915 0.63411,-0.31706 1.155,-0.54353 1.5627,-0.67944 0.45292,-0.13587 0.97382,-0.20381 1.5627,-0.20383 0.49821,2e-5 1.04176,0.0679 1.63064,0.20383 -5e-5,-4.8919 -0.56623,-9.21762 -1.69858,-12.97718 -0.0906,-0.22645 -0.31711,-0.81529 -0.67943,-1.76652 -0.36241,-0.95118 -0.5436,-1.85709 -0.54355,-2.71774 -5e-5,-0.81528 0.20379,-1.49471 0.61149,-2.0383 1.90237,1.31361 4.14449,3.03484 6.72639,5.1637 0.13584,1.31359 0.47555,2.37804 1.01914,3.19333 0.6341,-0.76999 1.42677,-1.51737 2.37803,-2.24212 0.0905,-0.0906 0.4529,-0.40764 1.08709,-0.95121 0.63408,-0.54352 1.15498,-1.10971 1.5627,-1.69858 0.0905,-0.13586 0.18113,-0.20381 0.27177,-0.20384 0.0905,3e-5 0.20377,0.0453 0.33972,0.13589 0.13583,0.0453 0.27171,-0.0226 0.40765,-0.20383 0.40761,-0.13585 0.58879,-0.56616 0.54355,-1.29092 0.95115,-0.58881 1.81177,-1.31354 2.58185,-2.17419 0.76996,-0.86058 1.58529,-1.94767 2.44596,-3.26128 1.4494,-1.99297 2.60443,-3.39713 3.46511,-4.21249 0.0452,-0.0453 0.11317,-0.0679 0.20383,-0.0679 0.0905,5e-5 0.18111,0.068 0.27178,0.20384 0.13582,0.0906 0.2717,0.11328 0.40765,0.0679 0.27171,-0.45291 0.76996,-0.99645 1.49476,-1.63064 0.58877,-0.5435 1.01908,-0.99646 1.29092,-1.35887 0.31701,-0.40761 0.54348,-0.95115 0.67944,-1.63063 l 0.27177,0 c 0.18111,4e-5 0.36229,-0.0453 0.54355,-0.13589 0.18111,-0.0905 0.36229,-0.11319 0.54355,-0.0679 0.0905,-0.27172 0.20375,-0.58879 0.33971,-0.9512 0.1811,-0.40762 0.29435,-0.74733 0.33971,-1.01916 0.0905,-0.27172 0.0905,-0.56614 0,-0.88326 l 1.42681,0 c -0.22655,-0.40761 -0.33979,-0.83792 -0.33971,-1.29092 -8e-5,-0.4982 0.13581,-0.95116 0.40766,-1.35887 0.31699,-0.40761 0.76995,-0.88321 1.35887,-1.42681 0.90583,-0.81527 1.44937,-1.51735 1.63063,-2.10624 -7e-5,-0.22642 -0.11331,-0.4529 -0.33971,-0.67944 -0.18126,-0.27172 -0.22655,-0.63408 -0.13589,-1.08709 1.53997,-0.3623 2.51383,-1.38146 2.92157,-3.05745 -0.27185,-0.0905 -0.47569,-0.13583 -0.6115,-0.13589 -0.31714,6e-5 -0.79274,0.13595 -1.4268,0.40766 -0.54363,0.31713 -1.01923,0.47567 -1.42681,0.47561 -0.45303,6e-5 -0.8607,-0.24907 -1.22298,-0.74738 l -0.0679,0 c -0.18125,6e-5 -0.2945,0.15859 -0.33972,0.4756 -7e-5,0.27184 -0.0227,0.47566 -0.0679,0.61149 -0.13596,-0.0905 -0.33978,-0.13583 -0.61148,-0.13589 -0.22656,6e-5 -0.52098,0.0907 -0.88327,0.27178 -0.36243,0.18124 -0.63421,0.27183 -0.81532,0.27178 -0.31714,5e-5 -0.58891,-0.20377 -0.81533,-0.6115 -0.27183,0.0907 -0.65685,0.36242 -1.15503,0.81532 -0.45302,0.40772 -0.88333,0.6342 -1.29092,0.67944 -0.18125,0.0454 -0.40773,0.0454 -0.67944,0 -0.22654,-0.0452 -0.43037,-0.0679 -0.61148,-0.0679 -0.40773,6e-5 -0.7248,0.18124 -0.95121,0.54354 -0.36243,-0.18112 -0.79274,-0.27171 -1.29092,-0.27177 -0.40773,6e-5 -0.97392,0.0907 -1.69859,0.27177 -0.18125,0.0454 -0.40772,0.0907 -0.67943,0.13589 -0.22654,0.0454 -0.49831,0.068 -0.81532,0.0679 -0.31713,6e-5 -0.61155,-0.0679 -0.88327,-0.20383 -0.95126,0.72479 -1.76658,1.08715 -2.44596,1.0871 -0.27183,5e-5 -0.5436,-0.0679 -0.81532,-0.20384 -0.45301,-1.31351 -1.04185,-2.53649 -1.76652,-3.66894 -0.67949,-1.13233 -1.08715,-1.81176 -1.22298,-2.0383 -0.13594,-1.90235 0.81526,-2.85355 2.85361,-2.85362 1.08704,7e-5 2.40062,0.29449 3.94073,0.88327 0.72466,-0.36231 1.38145,-0.54349 1.97035,-0.54355 0.72466,6e-5 1.15497,0.24919 1.29092,0.74738 0.54348,-0.49819 1.35881,-0.74732 2.44596,-0.74738 l 2.37802,0.0679 c 0.81525,7e-5 1.81175,-0.15846 2.9895,-0.4756 1.26821,-0.2717 2.19677,-0.4076 2.78568,-0.40766 0.86054,6e-5 1.53998,0.22654 2.03831,0.67943 0.22639,-0.0452 0.72465,-0.13581 1.49474,-0.27177 0.76995,-0.13582 1.53998,-0.20377 2.31007,-0.20383 0.40759,-0.58877 1.26821,-2.46854 2.58186,-5.6393 1.31349,-3.17061 1.99292,-5.16361 2.03829,-5.97901 0.0905,-0.0905 0.13581,-0.13581 0.13589,-0.13589 -8e-5,-0.0905 -0.068,-0.2264 -0.20382,-0.40765 -0.13598,-0.22641 -0.13598,-0.38494 0,-0.47561 0.22639,-0.1811 0.38492,-0.38493 0.4756,-0.61149 0.1358,-0.2717 0.22639,-0.54347 0.27177,-0.81532 0.0905,-0.58876 0.24904,-1.04172 0.47561,-1.35887 -10e-5,8e-5 0.0452,-0.0452 0.13588,-0.13588 l 0.54355,-0.47561 c 0.0905,8e-5 0.22638,-0.0452 0.40766,-0.13588 l 0.54354,-0.13589 c 0.27169,-0.0452 0.6567,-0.0679 1.15504,-0.0679 l 0,0.54355 c 0.67935,-0.13581 1.1323,-0.0452 1.35887,0.27177 0.27168,0.31715 0.52081,0.88334 0.74737,1.69858 0.63405,0.0454 1.10965,0.74746 1.42682,2.10625 0.31697,1.31365 0.4755,2.92164 0.4756,4.82397 -10e-5,1.22306 -0.068,2.40074 -0.20384,3.53306 -0.13597,1.13246 -0.31715,1.97043 -0.54354,2.5139 l 0.13589,0.0679 c 0.13579,7e-5 0.33963,-0.11318 0.61149,-0.33972 0.27168,-0.2717 0.47551,-0.45288 0.61149,-0.54355 0.54345,0.58891 1.22288,0.88334 2.0383,0.88327 0.76993,7e-5 1.60789,-0.15846 2.5139,-0.4756 0.90581,-0.3623 1.47201,-0.58878 1.69859,-0.67943 1.0417,0.49831 2.40056,0.74743 4.07659,0.74737 1.087,6e-5 2.17409,-0.0679 3.26129,-0.20383 l -0.40766,-0.54354 c -0.72484,-5.61659 -1.92517,-9.78377 -3.601,-12.50158 l 0,-0.0679 c 0.40755,-0.1811 0.61139,-0.81524 0.61149,-1.90241 0.27167,-0.2264 0.45285,-0.67935 0.54354,-1.35887 0.31697,0.13597 0.79257,0.2945 1.42681,0.47561 0.67933,0.18126 1.26818,0.52098 1.76654,1.01914 0.49814,0.45304 0.92844,1.15512 1.29092,2.10625 0.22637,-0.18111 0.47549,-0.27169 0.74737,-0.27178 0.40755,9e-5 0.74727,0.24921 1.01915,0.74738 0.31696,0.49833 0.65668,1.26836 1.01915,2.31007 l 0.6115,1.63065 c -1.2e-4,1.63071 -0.136,3.10281 -0.40767,4.41631 l 0.0679,-0.13589 c 0.54343,0.40774 1.10963,0.67951 1.69859,0.81533 0.36225,0.0907 0.61137,0.13595 0.74737,0.13588 0.13578,0.49832 0.3849,0.92863 0.74738,1.29093 0.22636,0.18125 0.52079,0.40772 0.88326,0.67942 0.40755,0.27185 0.74726,0.58892 1.01915,0.95121 0.27166,0.31714 0.45284,0.7248 0.54355,1.22298 l 0.67943,0 c 0.36225,7e-5 0.58873,0.068 0.67944,0.20384 0.13576,0.54361 0.20371,1.06451 0.20383,1.5627 -1.2e-4,1.63069 -0.52102,3.1028 -1.5627,4.41631 -1.26839,-0.0905 -2.24225,-0.22642 -2.92156,-0.40766 -0.63426,-0.18112 -1.10986,-0.56614 -1.42681,-1.15504 -0.54366,0.49832 -1.20045,0.74744 -1.97036,0.74738 -0.45307,6e-5 -1.17779,-0.13583 -2.17419,-0.40766 -0.95131,-0.31701 -1.76663,-0.47555 -2.44596,-0.47561 -0.49836,6e-5 -1.01925,0.1133 -1.56269,0.33972 -0.81543,-0.4076 -1.33633,-0.76996 -1.5627,-1.08709 -0.54365,0.31713 -1.35897,0.47567 -2.44596,0.4756 l -0.95121,0 c -0.77012,7e-5 -1.35897,0.068 -1.76653,0.20383 0.22638,0.6795 0.49816,1.26834 0.81533,1.76653 0.31697,0.45301 0.79257,1.04185 1.4268,1.76653 1.17759,1.13244 1.92496,2.21953 2.24213,3.26128 0.22638,-0.13584 0.43021,-0.20377 0.61149,-0.20383 0.22638,6e-5 0.45286,0.11329 0.67944,0.33972 0.27167,0.22653 0.49815,0.47565 0.67943,0.74737 0.27167,0.40772 0.49815,0.70213 0.67944,0.88326 0.22637,0.13594 0.49814,0.13594 0.81532,0 0.13578,0.22654 0.36225,0.5436 0.67943,0.95121 0.31696,0.40771 0.49814,0.88332 0.54355,1.42682 0.18107,-0.0452 0.29431,-0.22643 0.33972,-0.54356 0.0905,-0.31701 0.20372,-0.4982 0.33971,-0.54354 0.27166,0.0906 0.49814,0.40771 0.67943,0.95121 0.22637,0.5436 0.40755,0.88331 0.54355,1.01914 0.0905,0.13595 0.18107,0.20388 0.27177,0.20384 0.0905,4e-5 0.20372,-0.0679 0.33972,-0.20384 0.18107,-0.18112 0.3849,-0.24907 0.61149,-0.20383 0.0452,0.13594 0.15842,0.38507 0.33971,0.74738 0.18108,0.36242 0.40755,0.63419 0.67944,0.81532 0.22636,-0.18113 0.47549,-0.27172 0.74737,-0.27178 0.13579,6e-5 0.27167,0.0906 0.40767,0.27178 0.18107,0.13594 0.31695,0.29447 0.40766,0.4756 0.0905,0.18123 0.15842,0.31713 0.20383,0.40766 0.22636,-0.0905 0.52078,-0.13583 0.88326,-0.13588 0.40755,5e-5 0.97374,0.18123 1.69858,0.54355 0.63402,0.40771 1.22286,0.61153 1.76653,0.61148 0.31695,5e-5 0.58873,-0.0453 0.81532,-0.13588 0.36224,0.67948 0.88315,1.15508 1.5627,1.42681 0.67931,0.27182 1.58522,0.52095 2.71773,0.74738 1.7664,0.27181 2.98938,0.70212 3.66894,1.29092 0.36224,-0.13584 0.70195,-0.20379 1.01915,-0.20383 0.27165,4e-5 0.65666,0.068 1.15504,0.20383 0.49812,0.13593 0.88314,0.20387 1.15503,0.20383 0.54343,4e-5 0.99638,-0.13585 1.35887,-0.40766 0.13575,0.18123 0.2037,0.4077 0.20383,0.67943 -1.3e-4,0.18123 -0.0681,0.54359 -0.20383,1.0871 l -1.76652,0.74737 c -1.85725,0.86065 -2.8764,1.33626 -3.05746,1.42681 -0.27189,0.13593 -0.67956,0.43035 -1.22297,0.88327 -0.3172,0.31711 -0.61162,0.56623 -0.88327,0.74738 -0.2719,0.13592 -0.63426,0.20386 -1.0871,0.20382 -0.22659,4e-5 -0.43043,-0.0226 -0.61149,-0.0679 -0.136,0.67947 -0.36248,1.29096 -0.67942,1.83448 -0.31719,0.54358 -0.49838,0.86065 -0.54356,0.9512 -0.67955,1.17772 -1.0872,2.15157 -1.22297,2.92157 -0.95133,-0.45293 -1.65341,-0.74735 -2.10624,-0.88327 -1.40429,-0.54351 -2.55932,-1.04176 -3.46512,-1.49475 -0.90602,-0.45292 -1.72134,-1.01912 -2.44596,-1.69858 -0.49836,-0.90587 -1.0872,-1.7212 -1.76652,-2.44596 -0.67955,-0.76999 -1.60811,-1.7212 -2.78568,-2.85363 -0.1813,-0.18113 -0.63425,-0.61144 -1.35887,-1.29092 -0.72483,-0.67939 -1.35897,-1.35882 -1.90241,-2.0383 l -0.20383,-0.20383 c -0.18129,-0.90587 -0.5663,-1.35882 -1.15504,-1.35886 -0.27187,4e-5 -0.54364,0.068 -0.81532,0.20383 0.13578,-0.36233 0.20373,-0.70204 0.20383,-1.01916 -10e-5,-0.63408 -0.18129,-1.26822 -0.54354,-1.90241 -0.36247,-0.63409 -0.88337,-1.38146 -1.5627,-2.24213 -0.45305,-0.54349 -0.86072,-1.08704 -1.22298,-1.63064 -0.0907,0.0906 -0.15863,0.24918 -0.20383,0.4756 -10e-5,0.18124 -0.11334,0.24918 -0.33972,0.20383 0.0452,-0.63408 -0.0454,-1.22292 -0.27177,-1.76653 -0.18129,-0.54348 -0.45305,-1.20027 -0.81532,-1.97035 -0.22658,-0.54349 -0.45306,-1.08704 -0.67944,-1.63064 -0.18127,-0.58878 -0.27187,-1.15498 -0.27177,-1.69858 -1e-4,-0.67938 0.15844,-1.40411 0.4756,-2.17419 -0.86071,-0.18112 -1.85721,-0.27171 -2.9895,-0.27177 -0.72482,6e-5 -1.56279,0.0454 -2.51391,0.13588 -0.9513,0.0907 -1.63072,0.1586 -2.0383,0.20383 -0.31716,0.0454 -0.88335,0.1133 -1.69858,0.20383 -0.8154,0.0906 -1.54014,0.13595 -2.17419,0.13588 -1.35895,3.44253 -3.05753,6.59056 -5.09575,9.44413 -1.99308,2.85367 -4.3258,5.63935 -6.99816,8.35704 l 0,0.0679 c -1.08717,0.95125 -2.35544,2.28747 -3.80483,4.00866 l -2.78568,2.92156 c -0.90597,0.49829 -2.12895,1.42685 -3.66894,2.78568 -0.95127,0.86065 -1.81188,1.56273 -2.58184,2.10624 -0.13595,0.0906 -0.22655,0.27181 -0.27178,0.54355 -0.0454,0.2718 -0.068,0.45299 -0.0679,0.54355 -1.08715,0.58887 -2.49131,1.58537 -4.21248,2.9895 -1.44952,1.17771 -2.71779,2.10627 -3.80483,2.78568 l 0.40766,0.33972 c 0.22643,-0.0453 0.47555,-0.20381 0.74738,-0.47561 0.31701,-0.27174 0.56614,-0.40763 0.74738,-0.40766 l 2.64978,0 c 1.85706,3e-5 4.50685,-0.0453 7.94937,-0.13588 0.76996,2e-5 2.08354,-0.0226 3.94072,-0.0679 1.90234,-0.0906 3.62357,-0.11321 5.16369,-0.0679 0.317,-0.40763 0.47553,-1.22295 0.4756,-2.44596 -7e-5,-0.77 -0.0227,-1.35883 -0.0679,-1.76652 l -0.0679,-1.90242 c -7e-5,-1.26825 0.18111,-2.1968 0.54354,-2.78567 -0.18125,-0.36234 -0.29449,-0.86059 -0.33971,-1.49476 -0.0454,-0.6341 -0.068,-1.04176 -0.0679,-1.22298 -7e-5,-0.95117 -0.0454,-1.6306 -0.13589,-2.0383 0.27171,-0.27173 0.45289,-0.72469 0.54355,-1.35886 l 0.13589,-0.0679 0.40766,0 c 0.31699,5e-5 0.702,0.0454 1.15504,0.13589 0.27169,0.0454 0.61141,0.11328 1.01914,0.20383 0.40759,0.0454 0.76995,0.068 1.0871,0.0679 0.2264,0.13593 0.63406,0.43034 1.22298,0.88326 0.63406,0.4077 1.15495,0.86065 1.56269,1.35887 0.40758,0.49829 0.702,1.10978 0.88327,1.83447 0.1811,0.18121 0.49817,0.27181 0.95121,0.27177 0.49817,4e-5 0.86053,0.0454 1.08709,0.13589 0.22639,0.0906 0.36228,0.33975 0.40766,0.74738 -9e-5,0.72476 -0.15862,1.76655 -0.4756,3.12539 -0.45305,2.3101 -0.65687,4.21251 -0.61149,5.70724 1.087,0.0906 1.94762,0.13591 2.58184,0.13589 3.30649,2e-5 6.49982,-0.43029 9.58001,-1.29093 0.13579,-0.22645 0.20374,-0.7247 0.20384,-1.49475 -1e-4,-0.67941 0.0452,-1.13236 0.13588,-1.35887 -0.0454,-0.13586 -0.20393,-0.29439 -0.4756,-0.4756 -0.22657,-0.22645 -0.31717,-0.54352 -0.27177,-0.95121 0.0452,-0.31703 0.0678,-0.81529 0.0679,-1.49475 -10e-5,-0.7247 -0.0454,-1.54002 -0.13589,-2.44596 -0.0907,-0.95117 -0.15863,-1.60795 -0.20383,-1.97036 -0.0454,-0.27173 -0.13598,-1.01911 -0.27177,-2.24213 -0.13598,-1.22294 -0.15863,-2.33267 -0.0679,-3.32922 -9e-5,-0.0453 0.0226,-0.0679 0.0679,-0.0679 0.0452,0.0454 0.15844,0.068 0.33972,0.0679 l 0.0679,0 c 0.76992,-0.0453 1.44936,0.0227 2.0383,0.20383 0.58874,0.18122 0.92846,0.29446 1.01914,0.33972 0.90581,0.3624 1.69849,0.54358 2.37802,0.54354 0.49815,4e-5 1.0417,-0.0679 1.63064,-0.20383 0.0452,0.18123 0.15843,0.4077 0.33972,0.67944 0.22638,0.22652 0.29432,0.56623 0.20383,1.01914 0.27167,-0.27173 0.61139,-0.40761 1.01915,-0.40765 0.18108,4e-5 0.4302,0.0454 0.74738,0.13588 0.31696,0.0906 0.58873,0.13593 0.81532,0.13588 0.13578,0.0906 0.33961,0.18123 0.61148,0.27178 0.13579,5e-5 0.27167,0.11328 0.40766,0.33972 0.13578,0.18122 0.24903,0.31711 0.33972,0.40766 l 0.40766,0.33971 c -0.18129,5e-5 -0.31717,-0.0226 -0.40766,-0.0679 0.0905,0.22652 0.22637,0.38506 0.40766,0.47561 0.18107,0.0454 0.4755,0.0906 0.88327,0.13588 0.40755,0.0454 0.67932,0.13593 0.81532,0.27178 -0.0454,0.3624 -1.1e-4,1.20037 0.13589,2.5139 0.0905,0.72477 0.13577,1.24567 0.13588,1.5627 -1.1e-4,0.86065 -0.22658,1.60803 -0.67943,2.24213 l 0,0.33972 c -1.1e-4,0.3171 0.11312,0.56623 0.33971,0.74737 0.27167,0.18122 0.40755,0.38504 0.40766,0.6115 -0.0454,0.31709 -0.13599,0.79269 -0.27177,1.42681 -0.13599,0.63416 -0.20394,1.15506 -0.20383,1.56269 -1.1e-4,0.77005 0.22637,1.29095 0.67943,1.5627 0.72462,-0.36234 1.58524,-0.63412 2.58185,-0.81532 0.99639,-0.22645 1.60788,-0.36234 1.83447,-0.40766 2.12877,-0.36234 3.80471,-0.83794 5.02781,-1.42681 1.26815,-0.63411 2.24201,-1.74385 2.92156,-3.32922 l 0.20384,-0.0679 c 0.13575,3e-5 0.22635,0.15857 0.27177,0.4756 0.0905,0.2718 0.18105,0.43034 0.27177,0.47561 0.0452,-1.17766 0.33959,-2.19681 0.88326,-3.05746 0.58872,-0.86058 1.15491,-1.29088 1.69858,-1.29092 0.49813,4e-5 0.88315,0.24916 1.15504,0.74737 0.31694,0.45299 0.72461,1.22302 1.22298,2.31008 0.45283,1.08712 0.86049,1.92509 1.22298,2.51391 0.40754,0.54357 0.90578,0.7927 1.49476,0.74737 -0.0454,0.36239 0.0226,0.81535 0.20382,1.35886 0.18106,0.49829 0.27165,0.838 0.27178,1.01916 -1.3e-4,0.2718 -0.11337,0.52092 -0.33972,0.74738 m -95.52839,-38.32021 c -4e-5,2.40072 0.1132,5.2317 0.33972,8.49292 0.0453,0.72478 0.1132,2.03835 0.20383,3.94071 0.0906,1.90246 0.13585,3.60104 0.13589,5.09575 -4e-5,1.58539 -0.0227,2.76308 -0.0679,3.53305 0.45292,-0.22643 1.31353,-0.43026 2.58184,-0.61149 1.31353,-0.18113 2.31004,-0.43026 2.98951,-0.74738 -0.0454,-2.21943 0.0226,-5.32217 0.20383,-9.30823 0.13584,-2.4006 0.20379,-4.73333 0.20383,-6.99816 -4e-5,-1.4041 -0.0227,-2.4459 -0.0679,-3.1254 -0.13594,-0.317 -0.36241,-0.58877 -0.67944,-0.81532 -0.3171,-0.22641 -0.58888,-0.43024 -0.81532,-0.61149 -0.18122,-0.22641 -0.27181,-0.54348 -0.27178,-0.95121 -0.40769,0.22655 -0.86065,0.33979 -1.35886,0.33972 -0.49829,7e-5 -0.99654,-0.0679 -1.49475,-0.20383 -0.13593,7e-5 -0.4077,-0.0226 -0.81532,-0.0679 -0.36241,-0.0905 -0.70212,-0.11317 -1.01916,-0.0679 l -0.0679,2.10625 m -7.26993,20.72272 c -0.36239,-2.98946 -0.54357,-5.29954 -0.54354,-6.93022 -3e-5,-2.17414 0.27174,-3.96331 0.81532,-5.36753 -0.58888,-0.58878 -0.88329,-1.47205 -0.88327,-2.64979 -2e-5,-0.49819 0.0906,-1.33615 0.27178,-2.5139 0.0453,-0.27171 0.0906,-0.61143 0.13588,-1.01915 0.0453,-0.4076 0.0679,-0.8832 0.0679,-1.42681 -3e-5,-0.54348 -0.0454,-0.95114 -0.13588,-1.22298 -0.72476,0.13595 -1.38155,0.20389 -1.97037,0.20383 l -1.69858,-0.0679 c -0.90593,-0.0905 -1.65331,-0.13583 -2.24213,-0.13589 -0.0906,1.54011 -0.13591,2.74044 -0.13588,3.60099 -3e-5,3.08016 0.2491,7.56442 0.74737,13.45278 -0.0453,0.31712 -0.29444,0.5889 -0.74737,0.81533 -0.45298,0.22652 -0.70211,0.52094 -0.74738,0.88326 0.67941,0.0906 1.15501,0.4077 1.42681,0.9512 0.31705,0.5436 0.54352,1.26832 0.67943,2.17419 0.63411,-0.31703 1.42679,-0.47556 2.37802,-0.4756 l 0.74738,0 c 0.81529,4e-5 1.42678,-0.0906 1.83447,-0.27177" />
    <path
       inkscape:connector-curvature="0"
       id="path4071"
       style="font-size:342.70510863999999174px;font-style:normal;font-variant:normal;font-weight:normal;font-stretch:normal;text-align:start;line-height:125%;letter-spacing:0px;word-spacing:0px;writing-mode:lr-tb;text-anchor:start;fill:#586e75;fill-opacity:1;stroke:none;font-family:'喜鹊古字典简体';-inkscape-font-specification:'喜鹊古字典简体'"
       d="m 407.76481,861.54938 c -0.2331,-0.23297 -0.58266,-0.39609 -1.04869,-0.48938 -0.41953,-0.13975 -0.69918,-0.23297 -0.83895,-0.27965 -0.0933,-2.00409 -0.7924,-3.42565 -2.09738,-4.26468 0.0466,-0.18635 0.0698,-0.4427 0.0699,-0.76903 -5e-5,-0.51263 -0.18648,-1.28166 -0.55931,-2.30713 -0.37291,-1.0253 -0.55934,-1.84094 -0.55929,-2.44693 -5e-5,-0.55922 0.0932,-1.11853 0.27965,-1.67792 0.18638,-0.23295 0.41943,-0.34948 0.69913,-0.34955 0.0932,7e-5 0.23298,0.0234 0.41947,0.0699 0.23299,9e-5 0.39612,-0.0465 0.48939,-0.13982 -0.0467,-0.32618 -0.23309,-0.48931 -0.5593,-0.48939 -0.13988,8e-5 -0.44283,0.07 -0.90887,0.20974 -0.46613,0.13991 -0.8623,0.20982 -1.18851,0.20974 -0.13988,8e-5 -0.39622,-0.0465 -0.76904,-0.13983 -1.25849,0.606 -2.49361,1.07207 -3.70538,1.39825 -0.27969,0.18653 -0.65256,0.53608 -1.1186,1.04869 -0.41952,0.46617 -0.839,0.81574 -1.25843,1.04869 -0.41952,0.18652 -1.02543,0.25643 -1.81773,0.20974 -1.02542,0.74581 -2.02751,1.32842 -3.00625,1.74782 -0.93221,0.37295 -2.09741,0.58268 -3.49563,0.62922 -0.60595,0.6992 -1.30507,1.32841 -2.09738,1.88764 -0.74577,0.55938 -1.72455,1.18859 -2.93633,1.88764 l -2.58678,1.6779 -0.41947,0 c -0.65255,8e-5 -1.30506,-0.13974 -1.95756,-0.41947 l 0,-0.20974 c -3e-5,-0.23297 0.0699,-0.4194 0.20974,-0.5593 0.1398,-0.18636 0.25632,-0.32618 0.34956,-0.41948 -0.60593,-0.74566 -1.0021,-1.4914 -1.18851,-2.2372 -0.18646,-0.79227 -0.32629,-1.79435 -0.41948,-3.00625 -0.0932,-1.63121 -0.25637,-2.86634 -0.48939,-3.70536 -1.02541,0.0467 -1.84106,-0.18636 -2.44694,-0.69913 -0.60593,-0.55922 -0.90889,-1.23504 -0.90887,-2.02747 -2e-5,-0.13975 0.0466,-0.39609 0.13983,-0.76905 1.30501,-0.0465 2.37701,-0.41939 3.21598,-1.1186 0.6991,0.13991 1.28171,0.20982 1.74782,0.20974 0.93214,8e-5 1.56136,-0.39608 1.88764,-1.18852 0.6525,-0.0465 1.42153,-0.16304 2.30712,-0.34957 0.6991,-0.23295 1.35162,-0.34947 1.95756,-0.34955 0.51266,8e-5 1.02535,0.0933 1.53808,0.27965 0.37283,-0.32617 0.81561,-0.53591 1.32834,-0.62921 0.51266,-0.0931 1.16517,-0.16304 1.95756,-0.20974 0.7923,-0.0465 1.42151,-0.11644 1.88764,-0.20974 0.51265,-0.0931 0.95543,-0.25626 1.32834,-0.4894 l 0.13982,0 c 0.27962,10e-5 0.55927,0.0933 0.83895,0.27966 0.32622,0.18653 0.62918,0.27975 0.90887,0.27965 0.46604,-0.0465 0.90883,-0.20964 1.32834,-0.48939 0.41944,-0.32616 0.74569,-0.5359 0.97878,-0.62921 l 0.69913,-0.0699 c 0.55926,9e-5 1.11856,0.13992 1.67791,0.41947 0.55926,-0.37277 1.21177,-0.55921 1.95755,-0.5593 l 1.18852,0 c 0.69907,9e-5 1.30498,-0.13973 1.81773,-0.41947 -0.0467,-0.41939 -0.23309,-1.25834 -0.55931,-2.51686 -0.37292,-1.11851 -0.55935,-1.93416 -0.55929,-2.44695 -6e-5,-0.65242 0.20968,-1.25832 0.62921,-1.81773 -0.41953,-0.55919 -0.62927,-1.0952 -0.62921,-1.60799 -6e-5,-0.60581 0.13977,-1.1418 0.41947,-1.60799 0.32621,-0.51259 0.88551,-1.25833 1.67791,-2.23722 0.65246,-0.79223 1.14185,-1.44474 1.46816,-1.95755 0.37282,-0.55918 0.60586,-1.1418 0.69913,-1.74782 1.72446,0.18655 3.72862,0.76915 6.01249,1.74782 1.21176,0.51281 2.28376,0.90897 3.21599,1.18852 0.18637,0.41959 0.60584,0.81575 1.25842,1.18851 0.0932,0.0467 0.25628,0.16324 0.4894,0.34957 0.27958,0.13993 0.48932,0.32637 0.62921,0.5593 0.23297,0.55941 0.3495,1.0721 0.34956,1.53808 -6e-5,0.79245 -0.2098,1.77123 -0.62921,2.93634 -0.0467,0.23314 -0.13989,0.62931 -0.27965,1.18851 -0.1399,0.51278 -0.20981,0.95558 -0.20974,1.32834 -7e-5,0.37296 0.0698,0.69922 0.20974,0.97877 0.27958,0.65262 0.88549,0.97888 1.81773,0.97878 0.69906,10e-5 1.65453,-0.16303 2.86642,-0.48938 1.53801,-0.27956 2.61,-0.44269 3.21598,-0.4894 0.32619,0.0467 0.81558,0.18654 1.46817,0.41948 0.69905,0.23314 1.42148,0.30305 2.16729,0.20974 0.37279,0.37296 0.55923,0.79243 0.55931,1.25843 -8e-5,0.55939 -0.34964,1.04878 -1.04869,1.46816 -0.6526,0.37296 -1.42163,0.5594 -2.30712,0.5593 -0.74581,10e-5 -1.37502,-0.11643 -1.88765,-0.34956 -0.41954,0.0933 -1.07207,0.30305 -1.95755,0.62922 -0.88563,0.27974 -1.67797,0.41956 -2.37704,0.41948 -0.51275,8e-5 -0.90893,-0.0465 -1.18851,-0.13984 -0.27972,10e-5 -0.53607,0.18654 -0.76904,0.55932 -0.1865,0.32634 -0.46615,0.46616 -0.83895,0.41947 0.65245,0.51278 0.97871,1.11869 0.97877,1.81773 -6e-5,0.32634 -0.16319,0.97887 -0.48938,1.95755 -0.32633,0.74583 -0.48946,1.32843 -0.48939,1.74783 -7e-5,0.41955 0.0932,1.00215 0.27965,1.74781 0.23298,0.79243 0.32619,1.49155 0.27965,2.09738 -0.0933,0.606 -0.27972,1.23521 -0.5593,1.88764 -0.27972,0.60599 -0.44285,0.97886 -0.48939,1.11861 -0.60598,1.21189 -0.95554,2.14407 -1.04869,2.7965 -1.63136,9e-5 -2.51692,0.53607 -2.65669,1.608 -0.65257,0.1399 -1.58474,0.39625 -2.79651,0.76905 -0.839,0.27972 -1.46822,0.46615 -1.88764,0.55929 m 18.45696,-0.34956 c -1.16528,-0.32618 -1.74789,-1.04862 -1.74782,-2.16729 -7e-5,-0.60584 0.13975,-1.18844 0.41947,-1.74782 0.65245,-0.0465 1.14184,-0.18636 1.46817,-0.41947 0.3728,-0.27957 0.74566,-0.67575 1.1186,-1.18852 0.32619,-0.4194 0.60584,-0.74566 0.83896,-0.97878 0.27958,-0.23296 0.62913,-0.41939 1.04869,-0.5593 -0.18651,-0.4194 -0.27973,-0.83887 -0.27965,-1.25843 -8e-5,-0.51261 0.11644,-0.93208 0.34957,-1.25843 0.23296,-0.37278 0.58252,-0.79226 1.04868,-1.25843 0.69905,-0.79226 1.11853,-1.35156 1.25844,-1.6779 -0.0933,-0.13974 -0.27974,-0.39609 -0.5593,-0.76904 -0.23313,-0.37278 -0.34965,-0.74565 -0.34957,-1.1186 -8e-5,-0.18635 0.11644,-0.4427 0.34957,-0.76905 -0.41956,-0.37277 -0.95556,-0.55921 -1.608,-0.55931 -0.32633,9e-5 -0.72251,0.0467 -1.18852,0.13983 -0.46616,0.0467 -0.83902,0.0467 -1.1186,0 -1.58476,-0.27956 -2.37711,-0.81556 -2.37704,-1.60799 -7e-5,-0.60582 0.44272,-1.14181 1.32835,-1.608 0.9321,-0.51259 2.09731,-0.76894 3.49564,-0.76903 0.88548,9e-5 1.72443,0.0933 2.51686,0.27964 0.18635,-0.0931 0.51261,-0.27954 0.97878,-0.55929 0.46599,-0.27956 0.83886,-0.5592 1.1186,-0.83895 0.27956,-0.32617 0.41939,-0.65243 0.41947,-0.97879 -8e-5,-0.27954 -0.0467,-0.51259 -0.13983,-0.69912 0.466,0.0467 0.81557,9e-5 1.0487,-0.13981 0.23296,-0.13974 0.41939,-0.30287 0.5593,-0.48941 0.18635,-0.23294 0.34947,-0.41937 0.48939,-0.55929 -0.46617,-0.46599 -0.69922,-0.95538 -0.69913,-1.46817 -9e-5,-0.32616 0.0698,-0.67572 0.20974,-1.04869 0.18635,-0.41937 0.39609,-0.81555 0.62921,-1.18852 0.23296,-0.41937 0.41939,-0.83885 0.5593,-1.25843 0.18635,-0.41937 0.30288,-0.83885 0.34957,-1.25843 -0.13992,-0.23294 -0.39626,-0.5825 -0.76904,-1.04868 -0.37295,-0.46599 -0.65261,-0.86215 -0.83895,-1.18852 -0.18652,-0.32616 -0.27974,-0.67572 -0.27965,-1.04869 -9e-5,-0.32616 0.0931,-0.65241 0.27965,-0.97879 2.88964,-1.30493 5.19675,-1.95744 6.92136,-1.95755 1.25833,1.2e-4 2.28372,0.32637 3.07616,0.97878 l 0.27965,0 c 0.23294,1.2e-4 0.48928,-0.0698 0.76904,-0.20974 0.32615,-0.18632 0.67572,-0.25624 1.04869,-0.20973 0.0931,0.0933 0.20964,0.20984 0.34956,0.34956 0.18633,0.0933 0.30286,0.20985 0.34956,0.34956 0.0931,0.0933 0.11643,0.25646 0.0699,0.48939 1.16511,0.0467 2.37693,0.41959 3.63546,1.1186 1.30493,0.65263 2.37692,1.46828 3.21598,2.44695 0.83885,0.93228 1.25832,1.84114 1.25843,2.72659 -1.1e-4,0.32637 -0.07,0.62932 -0.20974,0.90888 -0.0933,0.13993 -0.37297,0.34967 -0.83895,0.62921 -0.46619,0.23314 -0.79245,0.46619 -0.97878,0.69913 -0.13993,0.13993 -0.48949,0.5594 -1.04869,1.25843 -0.51279,0.65262 -1.0721,1.25852 -1.6779,1.81773 -0.55941,0.51279 -1.14201,0.93226 -1.74782,1.25843 l 0,0.27965 c -1e-4,0.27975 -0.0933,0.69922 -0.27965,1.25843 -0.37297,0.0467 -0.79245,0.16322 -1.25843,0.34956 -0.41958,0.18653 -0.79244,0.32635 -1.11861,0.41947 0.0465,0.27975 0.13973,0.5128 0.27966,0.69914 0.18633,0.18652 0.37276,0.34965 0.5593,0.48938 0.23294,0.13992 0.39607,0.25645 0.48939,0.34957 0.60581,-0.55922 1.44475,-0.83886 2.51685,-0.83896 0.69903,1e-4 1.70112,0.13992 3.00625,0.41948 1.21171,0.27974 2.09727,0.41957 2.65669,0.41948 0.55918,9e-5 1.07188,-0.11644 1.53808,-0.34957 0.55919,0.32636 0.97866,0.48949 1.25842,0.48939 0.27954,10e-5 0.65241,-0.11643 1.11861,-0.34956 0.51258,0.0467 1.14179,0.20983 1.88764,0.48938 0.69901,0.23314 1.25831,0.39626 1.6779,0.48939 0.46597,0.0467 1.02528,0.0467 1.67791,0 0.46597,0.18653 0.86213,0.44288 1.18851,0.76904 0.37276,0.27974 0.58249,0.44287 0.62922,0.48939 0.46597,0.41957 0.90874,0.76913 1.32834,1.04869 0.41936,0.23314 0.93205,0.37296 1.53808,0.41948 l 0,0.97877 c 0.27953,0.0933 0.74562,0.25644 1.39825,0.4894 0.69901,0.23313 1.1884,0.53608 1.46817,0.90887 -0.4196,0.51277 -0.74586,1.18859 -0.97878,2.02747 -0.18655,0.79242 -0.30307,1.2585 -0.34956,1.39825 -0.37299,1.58476 -0.83907,2.79658 -1.39825,3.63546 -0.55943,0.83903 -1.56151,1.32841 -3.00625,1.46816 -0.27977,0.0933 -0.62933,0.32634 -1.04869,0.69914 -0.41959,0.32632 -0.76916,0.53606 -1.04869,0.6292 -0.27977,-0.0465 -0.69924,-0.0698 -1.25843,-0.0699 l -2.65668,0.0699 c -0.88568,8e-5 -1.6081,-0.0931 -2.1673,-0.27965 -0.51279,-0.18636 -0.83906,-0.53591 -0.97877,-1.04869 l -0.27965,0 c -0.18655,8e-5 -0.32638,0.1166 -0.41948,0.34957 -0.0933,0.18651 -0.30307,0.25642 -0.62922,0.20974 -2.05088,-2.19052 -5.03382,-4.05486 -8.94882,-5.59302 -0.18654,-0.18635 -0.27976,-0.58253 -0.27966,-1.18851 -1.16531,-0.51261 -2.47034,-0.69905 -3.91511,-0.55931 -0.0933,-0.13974 -0.18653,-0.37279 -0.27965,-0.69912 -0.0467,-0.32618 -0.11661,-0.55922 -0.20973,-0.69913 -0.0933,-0.18635 -0.27975,-0.30288 -0.55931,-0.34956 -1.02548,0.60599 -1.95765,1.30511 -2.79651,2.09738 -0.79243,0.79242 -1.67799,1.7945 -2.65668,3.00624 -1.58477,1.7712 -2.65677,2.91311 -3.21598,3.42572 -3.82198,1.11869 -6.78161,2.16737 -8.87892,3.14607 m -55.86026,30.83152 c 0.0466,-0.60587 -0.0466,-1.09526 -0.27965,-1.46818 -0.23306,-0.37282 -0.48941,-0.67577 -0.76904,-0.90886 -0.27967,-0.2796 -0.48941,-0.48934 -0.62921,-0.62921 0.46606,-0.60587 0.86223,-1.56134 1.18851,-2.86642 0.41946,-1.25838 0.81563,-2.21386 1.18852,-2.86643 0.41945,-0.65246 1.02536,-1.09524 1.81773,-1.32833 -0.13985,-0.97873 -0.0233,-1.88759 0.34956,-2.72661 0.41945,-0.8855 1.04867,-2.0041 1.88764,-3.3558 0.6525,-1.02533 1.14189,-1.88758 1.46818,-2.58678 0.37283,-0.69906 0.62918,-1.44479 0.76903,-2.2372 -0.3729,-0.51263 -0.55933,-1.18845 -0.5593,-2.02747 -3e-5,-0.74567 0.11649,-1.53801 0.34956,-2.37703 0.27963,-0.83888 0.58258,-1.53801 0.90887,-2.09738 -0.60593,-1.21175 -0.90889,-2.16722 -0.90887,-2.86642 -2e-5,-0.55923 0.1165,-1.00201 0.34957,-1.32835 1.58465,0.79242 2.84309,1.81781 3.77528,3.07616 0.97875,1.2119 2.21387,3.09954 3.70538,5.66293 0.41944,-0.13975 0.81561,-0.48932 1.18851,-1.04869 0.37284,-0.55923 0.55927,-0.79228 0.55931,-0.69913 0.23301,0.0467 0.69909,0.07 1.39825,0.0699 1.44482,7e-5 2.63334,-0.11646 3.56555,-0.34957 l -0.0699,-0.0699 2.65668,-0.20974 c 0.27961,-0.0465 0.62917,-0.0932 1.04869,-0.13983 0.41943,-0.0465 0.93213,-0.0698 1.53808,-0.0699 1.72447,0.23311 3.33246,0.34963 4.82398,0.34956 2.28376,7e-5 4.00828,-0.3728 5.17354,-1.1186 0.83889,0.65259 1.88758,0.97884 3.14607,0.97878 1.16516,6e-5 2.23715,-0.27959 3.21599,-0.83895 0.3728,0.37294 0.76897,0.60597 1.18852,0.69912 0.46601,0.0933 1.16514,0.1632 2.09737,0.20974 1.25836,7e-5 2.21384,0.11659 2.86643,0.34957 2.00409,-0.60585 3.89173,-1.04862 5.66293,-1.32834 1.77105,-0.27959 3.63538,-0.41942 5.59301,-0.41948 1.67782,6e-5 4.21799,0.16319 7.62049,0.48939 0.27956,-0.18637 0.72234,-0.51263 1.32834,-0.97878 0.65244,-0.46602 1.30495,-0.81558 1.95756,-1.04869 0.5126,0.41954 1.35155,0.81571 2.51686,1.18852 1.16511,0.37293 2.28371,0.55936 3.35581,0.55929 1.0719,7e-5 1.91085,-0.23297 2.51685,-0.69912 0.46599,0.23311 1.02528,0.34963 1.67791,0.34956 0.60581,7e-5 1.30493,-0.11645 2.09738,-0.34956 0.18633,-0.0465 0.51258,-0.11645 0.97878,-0.20974 0.46597,-0.0931 0.88546,-0.13976 1.25842,-0.13983 0.88546,7e-5 1.70111,0.25642 2.44695,0.76905 0.13972,-0.13976 0.34946,-0.3262 0.62922,-0.55931 0.32614,-0.27958 0.6291,-0.48932 0.90886,-0.62921 0.32615,-0.18636 0.6291,-0.27958 0.90887,-0.27965 0.37275,7e-5 0.72231,0.0933 1.04869,0.27965 0.32615,7e-5 0.60579,-0.0931 0.83895,-0.27965 0.27954,-0.23298 0.58249,-0.55923 0.90887,-0.97878 0.41936,-0.60584 0.81553,-0.90879 1.18851,-0.90886 0.27954,7e-5 0.55919,0.1632 0.83896,0.48938 0.23292,-0.13975 0.39605,-0.4427 0.48938,-0.90887 0.13971,-0.466 0.27954,-0.76895 0.41948,-0.90886 0.88544,0.0933 1.60787,0.32634 2.1673,0.69913 0.60579,0.32633 1.28161,0.81572 2.02746,1.46817 0.79222,0.69919 1.44474,1.21189 1.95756,1.53808 0.51257,0.32632 1.16508,0.53606 1.95756,0.62921 0.1863,0.7458 0.46596,1.46823 0.83895,2.1673 0.41934,0.69919 0.95535,1.53814 1.60798,2.51685 0.97866,1.58475 1.7244,2.9364 2.23721,4.05494 0.51257,1.11866 0.76891,2.37708 0.76904,3.77529 -1.3e-4,0.88561 -0.13995,1.86439 -0.41947,2.93633 -0.51282,0.18649 -1.67804,0.48944 -3.49564,0.90887 -1.25855,0.23309 -2.28394,0.46614 -3.07616,0.69912 -0.74585,0.23309 -1.37507,0.55936 -1.88764,0.97878 -0.74585,-0.27959 -1.56151,-0.41942 -2.44694,-0.41948 -0.37299,6e-5 -1.44498,0.11658 -3.21598,0.34957 -1.07212,0.23309 -2.0509,0.34961 -2.93634,0.34957 -1.25855,4e-5 -2.28393,-0.2563 -3.07616,-0.76905 -0.13994,-0.41942 -0.20985,-0.81559 -0.20974,-1.18851 -1.1e-4,-0.65247 0.27954,-1.53803 0.83895,-2.65669 0.0465,-0.13976 0.18632,-0.46603 0.41948,-0.97878 0.23293,-0.51263 0.34945,-1.02532 0.34956,-1.53807 -1.1e-4,-0.46603 -0.0467,-0.81559 -0.13982,-1.04869 -0.51281,-0.51264 -1.11872,-0.76898 -1.81773,-0.76904 -0.69924,6e-5 -1.35175,0.2331 -1.95756,0.69912 -0.55941,-0.3262 -1.11871,-0.74567 -1.6779,-1.25843 -0.55941,-0.55924 -0.95559,-0.95541 -1.18852,-1.18852 -0.60602,-0.0465 -1.14202,0.0233 -1.60799,0.20974 -0.41958,0.13989 -0.81575,0.32633 -1.18852,0.55931 -0.32636,0.18649 -0.5594,0.32632 -0.69913,0.41947 -0.27975,-0.13976 -0.67593,-0.34949 -1.18851,-0.62921 -0.46619,-0.27959 -0.93227,-0.48933 -1.39826,-0.62922 -0.46618,0.51276 -1.00218,0.76911 -1.60798,0.76905 -0.5128,6e-5 -1.18862,-0.16307 -2.02747,-0.4894 -0.83906,-0.27958 -1.46827,-0.41941 -1.88765,-0.41947 -0.606,6e-5 -1.09539,0.2098 -1.46817,0.6292 l -0.20974,0 c -0.23313,7e-5 -0.34966,-0.13976 -0.34956,-0.41947 -10e-5,-0.27959 -10e-5,-0.44271 0,-0.48939 -0.65261,0.46614 -1.46825,0.69919 -2.44694,0.69913 -0.79244,6e-5 -1.72461,-0.16307 -2.79651,-0.48939 -1.21191,-0.27959 -2.09747,-0.41941 -2.65669,-0.41948 -1.02546,7e-5 -1.88772,0.32632 -2.58677,0.97879 -0.51277,-0.3262 -1.16529,-0.48933 -1.95756,-0.48939 -1.02546,6e-5 -1.84111,0.2331 -2.44694,0.69913 -1.11868,-0.2796 -2.61015,-0.41942 -4.47441,-0.41948 l -2.65669,0.0699 c -0.55937,0.0467 -1.39832,0.07 -2.51686,0.0699 -0.60597,6e-5 -1.46823,-0.0465 -2.58676,-0.13982 -0.46615,-0.0466 -0.88563,0.11658 -1.25843,0.48938 -0.32632,0.32632 -0.58267,0.53606 -0.76904,0.62922 -0.6992,-0.13976 -1.46823,-0.20968 -2.30712,-0.20974 -0.88562,6e-5 -2.26057,0.0933 -4.12485,0.27965 -1.77118,0.1865 -3.0063,0.27971 -3.70538,0.27965 -1.11866,6e-5 -2.00421,-0.16307 -2.65668,-0.48939 -0.37292,7e-5 -0.95552,0.25641 -1.74782,0.76904 -0.74578,0.51276 -1.25847,1.02544 -1.53808,1.53809 -0.18647,-0.0466 -0.27969,-0.13977 -0.27965,-0.27966 0.0466,-0.18638 0.16309,-0.2796 0.34956,-0.27965 -0.0933,-0.0466 -0.3263,-0.0698 -0.69912,-0.0699 l -2.1673,0.0699 c -1.07203,6e-5 -1.77116,-0.13977 -2.09738,-0.41947 -0.55934,0.69918 -1.30507,1.16527 -2.2372,1.39824 -0.93221,0.23311 -2.33046,0.44285 -4.19477,0.62922 0.1398,0.83901 0.20971,1.58474 0.20974,2.23721 -3e-5,1.11866 -0.16316,2.09744 -0.48939,2.93633 -0.32629,0.83901 -0.79237,1.77117 -1.39826,2.79652 -0.55932,0.93221 -1.00211,1.74786 -1.32833,2.44694 -0.27968,0.65256 -0.51273,1.4216 -0.69913,2.30712 -0.18646,0.0467 -1.02542,0.41952 -2.51686,1.1186 -1.16524,0.51274 -2.0741,0.8856 -2.72659,1.11861 -0.65255,0.23308 -1.37497,0.34959 -2.1673,0.34955 -0.88558,4e-5 -1.72453,-0.11647 -2.51686,-0.34955 m 33.06872,20.62424 c -0.0933,-0.0466 -0.2331,-0.0699 -0.41948,-0.0699 -1.25847,-0.27964 -2.54021,-0.6292 -3.8452,-1.04869 l -0.41948,-0.0699 -0.41947,-0.20974 c -0.13987,-0.0466 -0.46614,-0.16311 -0.97878,-0.34956 0.0466,-0.1398 0.0698,-0.32624 0.0699,-0.5593 -4e-5,-0.55928 -0.23309,-1.00206 -0.69913,-1.32835 l -0.0699,-0.27965 c -4e-5,-0.1864 0.11648,-0.32623 0.34957,-0.41947 0.233,-0.1398 0.34952,-0.27963 0.34956,-0.41948 -0.23309,-1.67788 -0.48943,-4.33456 -0.76904,-7.97005 -0.18648,-2.56342 -0.3496,-4.40446 -0.48938,-5.5231 0.2796,-0.41944 0.41943,-0.95544 0.41946,-1.608 -3e-5,-0.65247 -0.11656,-1.44482 -0.34955,-2.37702 -0.18649,-1.02535 -0.2797,-1.77108 -0.27965,-2.23722 -5e-5,-0.46604 0.0698,-0.86221 0.20974,-1.18852 -1.49152,-0.41942 -2.77325,-1.16516 -3.84521,-2.23721 0.27961,-0.93211 0.51265,-1.58463 0.69913,-1.95755 0.233,-0.41941 0.69908,-0.76899 1.39825,-1.04868 0.79231,-0.2796 1.8643,-0.53596 3.21599,-0.76905 1.3982,-0.23298 2.61002,-0.34951 3.63546,-0.34956 1.30499,5e-5 2.4935,0.20979 3.56555,0.62921 1.11855,0.37292 1.77106,0.58266 1.95755,0.62921 l 1.74782,-0.20973 c 1.86428,-0.13977 3.70532,-0.37282 5.5231,-0.69913 l -0.13982,-0.13983 c 2.61001,0.18649 4.59087,0.27971 5.94258,0.27967 2.5634,4e-5 4.7773,-0.18639 6.64171,-0.55931 l 1.25843,0 c 0.466,5e-5 0.79227,0.0233 0.97877,0.0699 0.3728,-0.0466 0.67575,-0.23299 0.90887,-0.55931 0.27957,-0.37281 0.48931,-0.60584 0.62922,-0.69911 1.11852,-0.0932 1.84095,-0.13977 2.1673,-0.13984 0.13973,7e-5 0.53591,-0.0233 1.18851,-0.0699 0.65243,-0.0466 1.30495,-0.18637 1.95756,-0.41947 0.51261,-0.13977 1.00199,-0.34951 1.46816,-0.62922 0.97869,-0.41942 1.81764,-0.72238 2.51686,-0.90886 0.74565,-0.18638 1.63121,-0.27959 2.65668,-0.27966 0.69903,7e-5 1.25834,0.0233 1.6779,0.0699 1.44478,0.60596 2.81972,1.30509 4.12485,2.09738 1.30495,0.7924 2.79642,1.77118 4.47443,2.93633 l 3.14607,2.09739 c -0.0933,0.37292 -0.13994,0.58266 -0.13983,0.62921 -1.1e-4,0.18649 0.0931,0.37292 0.27965,0.55931 0.18633,0.18648 0.34945,0.37292 0.48939,0.5593 -0.32637,1.77117 -1.95766,2.72664 -4.89389,2.86642 -0.0933,0.0467 -0.20985,0.13988 -0.34957,0.27965 -0.13992,0.13988 -0.25644,0.2564 -0.34956,0.34957 l 0,0.20974 c -10e-5,0.27969 0.16303,0.58265 0.48939,0.90886 0.37276,0.2797 0.5825,0.53604 0.62921,0.76904 -0.0933,0.27969 -0.13992,0.72247 -0.13982,1.32834 -1e-4,0.2797 -1e-4,0.72247 0,1.32834 0.0465,0.60595 -1e-4,1.11864 -0.13982,1.53808 -0.13994,0.41951 -0.41959,0.76908 -0.83896,1.04869 0.18633,0.83899 0.58251,2.09742 1.18851,3.77529 0.41938,1.02542 0.74564,1.93428 0.97878,2.72659 0.23294,0.23308 0.86216,0.55933 1.88765,0.97878 0.79223,0.32629 1.37484,0.62925 1.74782,0.90887 0.41937,0.27967 0.6291,0.65255 0.62921,1.1186 -1.1e-4,0.23307 -0.07,0.53603 -0.20974,0.90886 -0.4662,0.55933 -1.04879,0.93221 -1.74782,1.1186 -0.65262,0.13986 -1.35174,0.23307 -2.09738,0.27966 -0.74584,0.0467 -1.23522,0.0699 -1.46816,0.0699 -0.5128,2e-5 -1.28184,0.0467 -2.30712,0.13982 -1.77122,0.0933 -3.12286,0.13985 -4.05494,0.13983 -0.65261,2e-5 -1.58478,-0.0466 -2.79651,-0.13983 -0.65261,-0.0466 -1.30513,-0.18641 -1.95755,-0.41948 -0.97887,-0.1864 -1.678,-0.30292 -2.09738,-0.34956 -1.07209,-0.0466 -2.72669,-0.0233 -4.9638,0.0699 -1.58478,0.0933 -2.7966,0.13986 -3.63547,0.13983 -1.02546,3e-5 -1.7945,-0.0233 -2.30712,-0.0699 l -1.32835,-0.0699 c -0.65258,3e-5 -1.67797,0.0467 -3.07615,0.13982 -1.30511,0.0933 -2.28389,0.13986 -2.93634,0.13983 -0.69919,3e-5 -1.23519,-0.0233 -1.60799,-0.0699 -0.55937,-0.0466 -1.46824,-0.0698 -2.7266,-0.0699 -0.93223,3e-5 -1.58474,0.0233 -1.95756,0.0699 -0.37292,0.0467 -0.86231,0.16316 -1.46815,0.34958 -0.60598,0.13984 -1.16528,0.20976 -1.67792,0.20974 -0.37292,2e-5 -0.8157,-0.0699 -1.32833,-0.20974 0.0931,0.37289 0.13976,0.62924 0.13982,0.76903 -6e-5,0.18646 -0.0467,0.51272 -0.13982,0.97878 -1.35171,0.0467 -2.47031,0.55933 -3.35581,1.53808 -1.07205,0.18646 -1.91101,0.51272 -2.51686,0.97878 m 15.87019,-9.64796 c 0.18636,-0.0466 0.37279,-0.1864 0.55929,-0.41947 0.23298,-0.23301 0.46602,-0.37284 0.69913,-0.41948 0.60584,0.0467 1.44479,0.0233 2.51687,-0.0699 l 1.46816,-0.0699 c 0.83887,2e-5 1.51469,0.16316 2.02747,0.48938 0.74565,-0.27962 2.0973,-0.41944 4.05493,-0.41947 l 4.05494,0.0699 c -0.0467,-0.18639 -0.13991,-0.39613 -0.27964,-0.62921 -0.0933,-0.27962 -0.13992,-0.53596 -0.13983,-0.76904 l 0,-0.13982 c -9e-5,-0.1398 0.11643,-0.25632 0.34956,-0.34957 0.23296,-0.1398 0.32618,-0.30292 0.27965,-0.48939 l 0.0699,-5.80275 c 0.13974,-3.07612 0.18635,-5.82601 0.13983,-8.2497 -2.23729,-0.0932 -4.03172,-0.13978 -5.38328,-0.13982 -1.58477,4e-5 -2.77328,0.0933 -3.56555,0.27964 -0.41956,-0.0932 -1.04877,-0.233 -1.88764,-0.41947 -0.79242,-0.18638 -1.44494,-0.2796 -1.95756,-0.27965 -0.83903,5e-5 -1.49155,0.23309 -1.95756,0.69912 -1.02545,0.0467 -2.00423,-0.0466 -2.93634,-0.27964 -0.74579,0.60596 -1.93431,0.9089 -3.56554,0.90886 -0.88562,4e-5 -2.26057,-0.16308 -4.12485,-0.4894 -0.37293,2.14405 -0.55936,4.59099 -0.5593,7.34084 -6e-5,0.93222 0.0466,2.19064 0.13982,3.77529 -0.0467,0.13987 -0.2331,0.25638 -0.5593,0.34956 -0.32631,0.0933 -0.48945,0.23308 -0.48939,0.41948 0.41942,0.32629 0.69907,0.76907 0.83896,1.32834 0.18637,0.51273 0.32619,1.21186 0.41947,2.09738 l 0.20974,1.46817 c 0.74568,0.3729 1.58462,0.55932 2.51686,0.5593 0.55923,2e-5 1.35158,-0.0932 2.37703,-0.27965 1.21175,-0.1864 2.16722,-0.27962 2.86642,-0.27965 0.55924,3e-5 1.16514,0.0699 1.81773,0.20974 m -20.9039,50.54689 c -1.21187,0.18642 -2.16733,0.27963 -2.86642,0.27965 -1.77117,-2e-5 -3.51898,-0.30297 -5.24346,-0.90887 -0.3729,-0.13984 -0.67586,-0.37288 -0.90886,-0.69912 -0.18647,-0.32628 -0.3729,-0.72245 -0.5593,-1.18852 -0.18647,-0.4661 -0.37291,-0.86228 -0.55931,-1.18852 0.27962,-0.93218 0.51266,-1.6313 0.69914,-2.09738 -0.46613,-0.93218 -0.69917,-1.65461 -0.69914,-2.1673 -3e-5,-0.5127 0.1631,-1.00208 0.48939,-1.46816 -1.02542,-1.49148 -1.53811,-3.49564 -1.53808,-6.01249 -3e-5,-0.74574 0.0466,-1.91095 0.13983,-3.49564 0.13979,-1.21181 0.20971,-2.44694 0.20974,-3.70537 -3e-5,-1.49147 -0.13986,-2.74989 -0.41948,-3.77528 -0.0933,-0.27964 -0.30299,-0.62921 -0.62921,-1.04869 -0.3263,-0.41947 -0.55933,-0.76903 -0.69913,-1.04869 -0.13985,-0.27964 -0.13985,-0.6059 0,-0.97878 -0.0933,-0.0466 -0.18647,-0.11651 -0.27965,-0.20974 -0.0933,-0.0932 -0.23308,-0.18642 -0.41948,-0.27966 -0.0467,-1.25841 -0.32629,-2.54015 -0.83895,-3.84519 -0.18647,-0.69911 -0.25638,-1.42154 -0.20974,-2.1673 0.41945,-0.27963 0.74571,-0.6758 0.97878,-1.18852 0.37283,0.0932 0.65248,0.13985 0.83896,0.13983 0.41943,2e-5 0.7923,-0.0932 1.1186,-0.27965 0.37283,-0.18641 0.72239,-0.39615 1.04869,-0.62922 0.0932,-0.0466 0.30291,-0.1864 0.62921,-0.41947 0.37284,-0.23302 0.7457,-0.37285 1.11861,-0.41947 0.18639,-0.0466 0.48934,-0.0699 0.90886,-0.0699 l 1.53808,0.0699 c 0.83891,0.0932 1.51473,0.13984 2.02747,0.13982 0.7923,2e-5 1.39821,-0.0466 1.81773,-0.13982 0.37282,-0.0466 0.60586,0.4661 0.69913,1.53807 -5e-5,0.0933 0.0233,0.27967 0.0699,0.55931 0.0932,0.27967 0.16309,0.48941 0.20973,0.62921 0.0932,0.13984 0.2097,0.20975 0.34957,0.20974 1.44481,-0.0932 2.5168,-0.18641 3.21599,-0.27965 2.23715,-0.18641 4.68409,-0.37285 7.34083,-0.5593 2.70323,-0.18642 5.19678,-0.27964 7.48066,-0.27966 2.42358,2e-5 4.54426,0.0932 6.36206,0.27966 0.51262,0.0466 1.35157,0.0699 2.51685,0.0699 1.67784,10e-6 2.93626,-0.0233 3.77529,-0.0699 l 2.93633,-0.0699 4.82399,0 c 2.05068,10e-6 3.49554,-0.0466 4.33458,-0.13983 l 4.33459,-0.5593 c 0.60581,-0.13981 0.90877,-0.39615 0.90886,-0.76904 -9e-5,-0.13981 -0.07,-0.37285 -0.20973,-0.69913 -0.0933,-0.32623 -0.13992,-0.58258 -0.13983,-0.76904 -9e-5,-0.55928 0.60582,-0.83893 1.81774,-0.83895 1.16511,2e-5 2.35362,-0.13981 3.56554,-0.41948 1.21171,-0.32623 1.93415,-0.51267 2.1673,-0.5593 0.79224,-0.23302 1.56127,-0.41945 2.30712,-0.5593 0.74562,-0.1398 1.35153,-0.1864 1.81773,-0.13983 1.1651,0.18646 2.42353,0.72246 3.77528,1.608 1.39814,0.83897 3.05274,2.00418 4.9638,3.49563 2.05065,1.53809 3.379,2.47027 3.98503,2.79652 -0.18656,0.32627 -0.27977,0.65253 -0.27965,0.97877 -1.2e-4,0.37289 0.25622,0.81566 0.76904,1.32834 0.32613,0.32628 0.55918,0.65253 0.69912,0.97877 0.18632,0.27967 0.23293,0.67584 0.13983,1.18852 l -1.6779,1.11861 c -1.02551,0.74574 -1.93438,1.32835 -2.7266,1.74781 -0.74585,0.41949 -1.65472,0.74575 -2.7266,0.97878 -0.69924,0.83896 -1.18863,1.84104 -1.46816,3.00625 -0.23316,1.11861 -0.34968,2.44695 -0.34957,3.98502 -1.1e-4,1.02539 0.0232,1.93426 0.0699,2.7266 0.0465,0.79234 0.0931,1.46816 0.13982,2.02747 0.18632,2.2372 0.27954,3.8685 0.27965,4.89389 -1.1e-4,2.09737 -0.25646,3.89179 -0.76904,5.38328 -0.74585,0.23303 -2.1674,0.48937 -4.26467,0.76904 -2.05088,0.27963 -3.822,0.41946 -5.31337,0.41947 -1.58479,-10e-6 -2.56357,-0.18645 -2.93633,-0.5593 -0.55941,0.0932 -1.21192,0.13981 -1.95756,0.13983 -1.21191,-2e-5 -1.81783,-0.27967 -1.81773,-0.83895 -10e-5,-0.23306 0.0698,-0.58262 0.20974,-1.04869 0.18634,-0.41949 0.27955,-0.72245 0.27965,-0.90887 -10e-5,-0.60592 -0.5594,-0.90887 -1.6779,-0.90887 -0.23314,-10e-6 -0.76914,0.0466 -1.608,0.13982 -1.11869,0.13983 -4.00841,0.27965 -8.66917,0.41948 -4.66093,0.13981 -7.807,0.18642 -9.43823,0.13983 l 0.20974,0.13983 c -0.41954,-2e-5 -0.90894,-0.0466 -1.46816,-0.13983 -0.51277,-0.0467 -0.90894,-0.0699 -1.18852,-0.0699 -0.37294,-0.0466 -0.83902,-0.0932 -1.39826,-0.13983 -0.55936,-0.0467 -1.21188,-0.0699 -1.95755,-0.0699 -1.2585,-2e-5 -2.30719,0.13981 -3.14607,0.41947 l 0.0699,-0.13983 c -0.55937,-1e-5 -1.23518,0.0932 -2.02747,0.27965 -0.7458,0.23303 -1.49153,0.46608 -2.23721,0.69913 -2.23726,0.83894 -4.07829,1.25842 -5.5231,1.25843 -0.60596,-1e-5 -1.23518,-0.0699 -1.88765,-0.20974 -0.13988,0.6059 -0.44283,1.25842 -0.90886,1.95755 l -1.32834,0.20974 c -0.55935,0.0466 -1.18856,0.41946 -1.88765,1.11861 -0.65256,0.55928 -1.09534,0.86224 -1.32833,0.90886 m 27.47569,-12.86393 c 2.0973,-0.37288 4.47434,-0.55931 7.1311,-0.55931 1.44478,0 2.7032,0.0233 3.77529,0.0699 1.11851,0.0466 2.05068,0.0932 2.7965,0.13983 l 2.51686,0.13983 c 1.02529,-0.69914 1.74773,-1.51478 2.1673,-2.44695 0.46599,-0.93218 0.72233,-1.84104 0.76903,-2.7266 0.0931,-0.83895 0.13973,-2.19059 0.13983,-4.05494 -10e-5,-1.1652 0.0465,-2.16728 0.13983,-3.00624 0.13973,-0.88555 0.37277,-1.72451 0.69912,-2.51686 -0.83905,-0.74572 -1.98095,-1.23511 -3.42572,-1.46816 -1.39834,-0.23304 -3.19277,-0.34956 -5.38328,-0.34957 l -4.26468,0 c -1.86441,10e-6 -3.21606,-0.0466 -4.05493,-0.13982 -0.32634,0.0466 -0.72251,0.13983 -1.18852,0.27965 -0.46616,0.13984 -0.86233,0.23305 -1.18852,0.27965 -0.97885,-0.60589 -1.88771,-0.93216 -2.72659,-0.97878 -0.41955,-0.0466 -1.00215,-0.0699 -1.74782,-0.0699 -1.44493,10e-6 -3.37918,0.23306 -5.80276,0.69913 -1.3051,0.32627 -2.49361,0.51271 -3.56554,0.5593 -0.41954,0.0466 -1.02545,0.0699 -1.81774,0.0699 l -2.65667,-0.0699 c -1.02545,10e-6 -1.8877,0.0932 -2.58677,0.27965 -0.65258,0.13983 -1.18858,0.44279 -1.608,0.90887 l -0.13983,0 c -0.18648,0 -0.39622,-0.0466 -0.62921,-0.13982 -0.23309,-0.13982 -0.39622,-0.20973 -0.48939,-0.20974 -0.13987,0 -0.32631,0.0699 -0.5593,0.20974 -0.32631,1.25843 -0.48944,2.49355 -0.48939,3.70536 -5e-5,0.83896 0.0932,2.144 0.27965,3.91512 0.233,1.6313 0.34951,3.12276 0.34957,4.47441 -6e-5,1.1186 -0.0467,1.98086 -0.13983,2.58677 0.93212,0.60591 1.9109,0.90886 2.93633,0.90886 0.8389,0 1.86429,-0.16312 3.07617,-0.48938 1.77106,-0.46609 3.28583,-0.69913 4.54432,-0.69913 0.60585,0 2.0041,0.11652 4.19476,0.34957 1.58462,0.18642 2.70323,0.27964 3.35581,0.27965 1.30497,-10e-6 2.37696,-0.25636 3.21599,-0.76904 0.32619,0.0466 0.67575,0.20973 1.04869,0.48939 0.3728,0.27964 0.81557,0.39616 1.32834,0.34956" />
    <path
       inkscape:connector-curvature="0"
       id="path4073"
       style="font-size:342.70510863999999174px;font-style:normal;font-variant:normal;font-weight:normal;font-stretch:normal;text-align:start;line-height:125%;letter-spacing:0px;word-spacing:0px;writing-mode:lr-tb;text-anchor:start;fill:#073642;fill-opacity:1;stroke:none;font-family:'喜鹊古字典简体';-inkscape-font-specification:'喜鹊古字典简体'"
       d="m 504.25433,821.02462 7.65037,11.25572 7.2107,-11.25572 7.47449,0 0,25.4133 -4.96834,0 0,-21.28035 -8.57368,13.32221 -2.41823,0 -8.92543,-13.32221 0,21.28035 -5.01231,0 0,-25.4133 7.56243,0 m -12.53078,0 0,4.13295 -8.92543,0 0,21.28035 -5.0123,0 0,-21.28035 -8.83749,0 0,-4.13295 22.77522,0" />
    <text
       xml:space="preserve"
       style="font-size:485.07672119000005750px;font-style:normal;font-variant:normal;font-weight:normal;font-stretch:normal;text-align:start;line-height:125%;letter-spacing:0px;word-spacing:0px;writing-mode:lr-tb;text-anchor:start;fill:#93a1a1;fill-opacity:1;stroke:none;font-family:'喜鹊古字典简体';-inkscape-font-specification:'喜鹊古字典简体'"
       x="2.3363156"
       y="751.97577"
       id="text4329"
       sodipodi:linespacing="125%"
       inkscape:export-xdpi="256.32001"
       inkscape:export-ydpi="256.32001"><tspan
         sodipodi:role="line"
         id="tspan4354"
         x="2.3363156"
         y="751.97577">fm</tspan></text>
    <text
       sodipodi:linespacing="125%"
       id="text3096"
       y="645.52045"
       x="-965.14954"
       style="font-size:75.70308685px;font-style:normal;font-variant:normal;font-weight:bold;font-stretch:normal;text-align:start;line-height:125%;letter-spacing:0px;word-spacing:0px;writing-mode:lr-tb;text-anchor:start;fill:#b58900;fill-opacity:1;stroke:none;font-family:'1942 report';-inkscape-font-specification:'1942 report Bold'"
       xml:space="preserve"
       transform="matrix(0,-1,1,0,0,0)"><tspan
         sodipodi:role="line"
         id="tspan4352"
         x="-965.14954"
         y="645.52045">fm.101.camp</tspan></text>
  </g>
  <g
     inkscape:groupmode="layer"
     id="layer2"
     inkscape:label="words"
     style="display:none" />
</svg>
